<svg width="268" height="216" viewBox="0 0 268 216" fill="none" xmlns="http://www.w3.org/2000/svg">
<path d="M124.545 5.14675L129.451 4.61293L128.719 5.09336L130.742 0.470527C130.999 -0.170051 131.975 -0.148699 132.216 0.486541L134.938 7.02577L133.492 6.96172L135.216 3.69477C135.483 3.15028 136.299 3.12893 136.604 3.64673L137.447 4.99728L136.769 4.61826H141.205L140.463 5.11472L141.67 2.19475C141.84 1.78372 142.305 1.59153 142.716 1.76235C142.94 1.8531 143.1 2.03994 143.17 2.24812L144.787 7.08448L143.33 6.95103L145.145 3.68409L145.203 3.57733C145.332 3.34245 145.593 3.23035 145.844 3.27305L148.865 3.80687C149.154 3.84957 149.159 4.29798 148.865 4.34068L145.844 4.8745L146.543 4.46347L144.728 7.73041C144.419 8.33362 143.463 8.23753 143.271 7.59696L141.654 2.7606L143.154 2.81397L141.947 5.73393C141.819 6.04354 141.52 6.23039 141.205 6.23039H136.769C136.481 6.23039 136.23 6.08091 136.091 5.85137L135.248 4.50082L136.636 4.45278L134.911 7.71972C134.623 8.3176 133.694 8.26422 133.465 7.65567L130.742 1.11644L132.216 1.13245L130.193 5.75529L130.16 5.83003C130.038 6.11295 129.749 6.26775 129.461 6.23572L124.555 5.7019C124.251 5.66988 124.235 5.20012 124.555 5.16809L124.545 5.14675Z" fill="#231F20"/>
<path d="M155.543 6.68945C155.543 14.1255 147.183 20.1523 136.87 20.1523C126.557 20.1523 118.197 14.1255 118.197 6.68945" stroke="#221F1F" stroke-width="2" stroke-linecap="round" stroke-linejoin="round"/>
<path d="M158.383 184.306C164.335 187.092 170.281 190.215 176.362 191.197C182.42 192.174 188.698 190.904 194.159 185.304C194.175 185.288 194.159 185.261 194.138 185.266C189.467 186.542 184.897 180.473 182.127 172.476C179.34 164.432 178 154.652 176.586 145.166C175.171 135.675 173.564 125.976 170.388 118.588C165.397 106.956 157.561 103.203 150.253 100.064C147.028 98.6764 143.313 97.5127 140.74 101.826C138.765 105.136 138.087 110.73 137.623 115.945C136.24 131.613 135.765 147.633 136.203 163.54C136.347 168.745 136.155 176.565 137.964 180.793C139.929 185.379 142.838 182.048 145.267 181.466C149.676 180.409 154.101 182.314 158.383 184.316V184.306Z" fill="#DE423B" stroke="#231F20" stroke-width="2" stroke-linecap="round" stroke-linejoin="round"/>
<path d="M115.854 184.306C109.902 187.092 103.955 190.215 97.875 191.197C91.8162 192.174 85.5386 190.904 80.0777 185.304C80.0617 185.288 80.0777 185.261 80.099 185.266C84.7699 186.542 89.3394 180.473 92.1099 172.476C94.8964 164.432 96.2363 154.652 97.6509 145.166C99.0655 135.68 100.672 125.976 103.848 118.588C108.84 106.956 116.676 103.203 123.984 100.064C127.208 98.6764 130.923 97.5127 133.496 101.826C135.472 105.136 136.15 110.73 136.614 115.945C137.997 131.613 138.472 147.633 138.034 163.54C137.89 168.745 138.082 176.565 136.272 180.793C134.308 185.379 131.399 182.048 128.97 181.466C124.56 180.409 120.135 182.314 115.854 184.316V184.306Z" fill="#DE423B" stroke="#231F20" stroke-width="2" stroke-linecap="round" stroke-linejoin="round"/>
<path d="M78.7429 139.108L82.4476 138.339C85.9974 137.602 88.768 134.816 89.4779 131.255L93.2253 112.518L107.708 124.107L105.065 143.522C104.548 147.344 101.66 150.414 97.8802 151.172L78.7429 154.999" fill="#FFF4E4"/>
<path d="M78.7429 139.108L82.4476 138.339C85.9974 137.602 88.768 134.816 89.4779 131.255L93.2253 112.518L107.708 124.107L105.065 143.522C104.548 147.344 101.66 150.414 97.8802 151.172L78.7429 154.999" stroke="#221F1F" stroke-width="2" stroke-linecap="round" stroke-linejoin="round"/>
<path d="M110.825 128.613L85.4423 123.574C85.4423 123.574 85.4422 93.253 106.298 96.6107C115.864 98.148 116.211 107.639 116.254 115.337C116.302 123.029 110.825 128.613 110.825 128.613Z" fill="#DE423B" stroke="#231F20" stroke-width="2" stroke-linecap="round" stroke-linejoin="round"/>
<path d="M56.5314 151.102L84.7328 164.725V136.204H64.1222C64.1222 136.204 63.0332 138.296 55.8534 143.154C51.1238 146.352 53.9424 129.819 51.268 126.899C50.8836 126.483 52.122 127.497 52.453 127.716C54.0224 128.752 54.9299 130.588 54.6256 132.44C54.3373 134.159 59.1364 140.757 55.8534 139.15C49.2875 135.937 42.113 142.935 40.4155 136.006C39.6308 132.803 42.7536 122.298 40.1219 124.636C37.4902 126.974 31.773 143.437 42.2892 148.022C52.8053 152.608 56.526 151.102 56.526 151.102H56.5314Z" fill="#231F20"/>
<path d="M52.7938 151.102L80.9952 164.725V136.204H60.3846C60.3846 136.204 59.3063 121.887 50.6425 121.598C41.9787 121.31 44.3222 124.604 47.5304 126.899C47.9895 127.23 48.3845 127.497 48.7155 127.716C50.2849 128.751 51.1923 130.588 50.8881 132.44C50.5998 134.159 49.4949 135.472 46.2119 133.865C39.646 130.652 45.4325 131.559 43.735 124.63C42.9503 121.428 39.0161 122.292 36.3897 124.63C33.7633 126.969 28.0408 143.431 38.557 148.017C49.0731 152.602 52.7938 151.097 52.7938 151.097V151.102Z" fill="#DE423B" stroke="#231F20" stroke-width="2" stroke-linecap="round" stroke-linejoin="round"/>
<path d="M194.212 139.107L190.507 138.339C186.957 137.602 184.187 134.816 183.477 131.255L179.729 112.518L165.247 124.107L167.889 143.522C168.407 147.344 171.295 150.414 175.075 151.172L194.212 154.999" fill="#FFF4E4"/>
<path d="M194.212 139.107L190.507 138.339C186.957 137.602 184.187 134.816 183.477 131.255L179.729 112.518L165.247 124.107L167.889 143.522C168.407 147.344 171.295 150.414 175.075 151.172L194.212 154.999" stroke="#221F1F" stroke-width="2" stroke-linecap="round" stroke-linejoin="round"/>
<path d="M217.956 151.102L189.755 164.725V136.204H210.365C210.365 136.204 211.454 138.296 218.634 143.154C223.364 146.351 220.545 129.819 223.22 126.899C223.604 126.483 222.366 127.497 222.035 127.716C220.465 128.752 219.558 130.588 219.862 132.44C220.15 134.159 215.351 140.757 218.634 139.15C225.2 135.937 232.375 142.935 234.072 136.006C234.857 132.803 231.734 122.298 234.366 124.636C236.997 126.974 242.715 143.437 232.198 148.022C221.682 152.608 217.962 151.102 217.962 151.102H217.956Z" fill="#231F20"/>
<path d="M221.694 151.102L193.492 164.725V136.204H214.103C214.103 136.204 215.181 121.887 223.845 121.598C232.509 121.31 230.165 124.604 226.957 126.899C226.498 127.23 226.103 127.497 225.772 127.716C224.203 128.751 223.295 130.588 223.599 132.44C223.888 134.159 224.993 135.472 228.276 133.865C234.841 130.652 229.055 131.559 230.752 124.63C231.537 121.428 235.471 122.292 238.098 124.63C240.729 126.969 246.447 143.431 235.93 148.017C225.414 152.602 221.694 151.097 221.694 151.097V151.102Z" fill="#DE423B" stroke="#231F20" stroke-width="2" stroke-linecap="round" stroke-linejoin="round"/>
<path d="M136.87 43.7263C126.129 43.7263 117.396 37.3259 117.396 29.4628C117.396 21.5997 126.135 15.1992 136.87 15.1992C147.605 15.1992 156.343 21.5997 156.343 29.4628C156.343 37.3259 147.605 43.7263 136.87 43.7263Z" fill="#DE423B"/>
<path d="M136.87 15.9999C147.183 15.9999 155.543 22.0267 155.543 29.4627C155.543 36.8987 147.183 42.9255 136.87 42.9255C126.557 42.9255 118.197 36.8987 118.197 29.4627C118.197 22.0267 126.557 15.9999 136.87 15.9999ZM136.87 14.3985C125.692 14.3985 116.596 21.1565 116.596 29.4627C116.596 37.7689 125.692 44.527 136.87 44.527C148.048 44.527 157.144 37.7689 157.144 29.4627C157.144 21.1565 148.048 14.3985 136.87 14.3985Z" fill="#231F20"/>
<path d="M95.0515 67.918C102.416 67.918 108.386 61.9478 108.386 54.5833C108.386 47.2187 102.416 41.2486 95.0515 41.2486C87.687 41.2486 81.7168 47.2187 81.7168 54.5833C81.7168 61.9478 87.687 67.918 95.0515 67.918Z" fill="#231F20"/>
<path d="M177.189 67.918C184.554 67.918 190.524 61.9478 190.524 54.5833C190.524 47.2187 184.554 41.2486 177.189 41.2486C169.825 41.2486 163.854 47.2187 163.854 54.5833C163.854 61.9478 169.825 67.918 177.189 67.918Z" fill="#231F20"/>
<path d="M149.276 71.6441H124.144V110.282H149.276V71.6441Z" fill="#FFF4E4" stroke="#221F1F" stroke-width="2" stroke-linecap="round" stroke-linejoin="round"/>
<path d="M174.329 184.983L140.063 181.364L99.3169 180.451L79.9395 165.868L141.819 155.004L182.517 164.602L174.329 184.983Z" fill="#231F20"/>
<path d="M162.125 128.613L187.508 123.574C187.508 123.574 187.508 93.253 166.652 96.6107C157.086 98.148 156.739 107.639 156.696 115.337C156.648 123.029 162.125 128.613 162.125 128.613Z" fill="#DE423B" stroke="#231F20" stroke-width="2" stroke-linecap="round" stroke-linejoin="round"/>
<path d="M142.197 152.8C140.564 152.8 139.064 152.682 137.724 152.458C136.384 152.682 134.879 152.8 133.251 152.8C130.533 152.8 128.371 152.485 128.088 152.442C127.742 152.41 123.951 152.095 120.215 152.095C117.946 152.095 116.152 152.207 114.871 152.437C114.823 152.448 114.775 152.448 114.733 152.448C114.386 152.448 114.065 152.218 113.964 151.876C112.837 148.081 111.764 141.317 110.729 134.784C109.885 129.483 109.09 124.476 108.332 121.401C108.14 120.632 107.916 119.81 107.681 118.951C106.677 115.278 105.54 111.114 105.999 107.618C106.368 104.789 109.725 97.8543 112.256 97.1069C120.722 94.0268 129.348 92.4574 137.836 92.4574C146.324 92.4574 154.859 94.0268 163.23 97.1176C165.76 97.9077 169.091 104.799 169.459 107.623C169.913 111.12 168.776 115.283 167.772 118.956C167.537 119.815 167.313 120.637 167.126 121.401C166.363 124.476 165.568 129.483 164.73 134.784C163.694 141.323 162.616 148.081 161.495 151.876C161.393 152.223 161.078 152.448 160.726 152.448C160.678 152.448 160.635 152.448 160.587 152.437C159.311 152.213 157.512 152.095 155.244 152.095C151.507 152.095 147.717 152.41 147.37 152.442C147.082 152.485 144.925 152.8 142.208 152.8H142.197Z" fill="#DE423B"/>
<path d="M137.837 93.2529C146.223 93.2529 154.615 94.7796 162.974 97.8703C165.003 98.4682 168.291 104.847 168.664 107.719C169.204 111.872 167.325 117.253 166.348 121.203C164.629 128.132 162.734 144.857 160.721 151.647C159.227 151.385 157.236 151.295 155.239 151.295C151.251 151.295 147.269 151.647 147.269 151.647C147.269 151.647 145.027 151.999 142.203 151.999C140.789 151.999 139.23 151.908 137.73 151.647C136.23 151.914 134.671 151.999 133.257 151.999C130.427 151.999 128.191 151.647 128.191 151.647C128.191 151.647 124.203 151.295 120.221 151.295C118.23 151.295 116.233 151.38 114.739 151.647C112.726 144.857 110.831 128.132 109.112 121.203C108.135 117.253 106.256 111.872 106.795 107.719C107.169 104.847 110.457 98.4736 112.486 97.8703C120.915 94.8063 129.376 93.2529 137.837 93.2529ZM137.837 91.6514C129.264 91.6514 120.562 93.2315 111.973 96.3543C110.612 96.7867 109.144 98.4095 107.617 101.169C106.614 102.979 105.455 105.6 105.205 107.516C104.729 111.173 105.888 115.417 106.907 119.164C107.142 120.024 107.367 120.84 107.553 121.593C108.306 124.636 109.101 129.627 109.94 134.912C110.98 141.478 112.059 148.262 113.201 152.111C113.404 152.8 114.039 153.259 114.733 153.259C114.824 153.259 114.92 153.248 115.011 153.232C116.244 153.013 117.989 152.907 120.215 152.907C123.845 152.907 127.534 153.211 127.999 153.248C128.394 153.307 130.561 153.611 133.257 153.611C134.879 153.611 136.379 153.499 137.73 153.28C139.08 153.499 140.581 153.611 142.203 153.611C144.899 153.611 147.066 153.307 147.461 153.248C147.926 153.211 151.614 152.907 155.244 152.907C157.465 152.907 159.216 153.019 160.449 153.232C160.545 153.248 160.636 153.259 160.727 153.259C161.426 153.259 162.056 152.8 162.259 152.111C163.396 148.262 164.474 141.478 165.52 134.912C166.358 129.627 167.154 124.636 167.906 121.593C168.093 120.835 168.318 120.024 168.552 119.164C169.577 115.417 170.736 111.173 170.255 107.516C170.004 105.6 168.846 102.984 167.842 101.169C166.316 98.4148 164.853 96.792 163.492 96.3543C155.042 93.2315 146.41 91.6514 137.842 91.6514H137.837Z" fill="#231F20"/>
<path d="M163.326 149.912H112.976V160.588H163.326V149.912Z" fill="#DE423B" stroke="#231F20" stroke-width="2" stroke-linecap="round" stroke-linejoin="round"/>
<path d="M117.973 109.774L128.372 111.264L125.708 108.258L134.559 110.329L131.895 107.009C134.479 107.708 137.062 108.408 139.646 109.112C145.406 110.676 152.997 111.456 155.345 117.958C156.723 121.769 155.586 126.36 152.409 128.933C147.466 132.942 139.955 130.001 135.269 126.904L125.964 121.369L128.612 120.776L121.795 116.351H127.432L117.968 109.785L117.973 109.774Z" fill="#231F20"/>
<path d="M139.939 124.908C139.229 124.908 138.641 124.417 138.449 123.654C138.102 122.298 137.718 120.846 137.232 119.404C137.211 119.415 137.056 119.49 137.056 119.49C136.746 119.639 136.48 119.714 136.218 119.714C135.674 119.714 135.241 119.415 134.926 118.823C134.478 117.984 134.718 117.125 135.535 116.645C135.684 116.554 135.85 116.463 136.031 116.378C135.988 116.276 135.786 115.801 135.786 115.801C135.428 114.979 135.705 114.21 136.496 113.837C136.741 113.719 136.987 113.661 137.232 113.661C137.761 113.661 138.23 113.943 138.524 114.429C138.679 114.685 138.807 114.952 138.93 115.209C138.62 114.456 138.85 113.746 139.533 113.346C139.827 113.169 140.126 113.084 140.419 113.084C140.713 113.084 141.145 113.175 141.529 113.602C141.567 113.639 141.695 113.767 141.764 113.975C141.839 114.221 141.844 114.237 142.175 114.237C142.325 114.237 142.48 114.226 142.65 114.216C142.768 114.205 142.869 114.205 142.971 114.205C144.252 114.205 145.384 114.803 146.003 115.806C146.617 116.81 146.643 118.091 146.062 119.234C145.421 120.499 144.247 121.198 142.464 121.363C142.389 121.369 142.314 121.374 142.245 121.374H142.106C142.069 121.374 142.026 121.379 141.988 121.379C141.978 121.379 141.764 121.374 141.764 121.374C141.588 121.374 141.407 121.363 141.231 121.342C141.198 121.342 141.166 121.331 141.14 121.326C141.279 121.785 141.407 122.239 141.529 122.693C141.818 123.771 141.268 124.342 140.916 124.588C140.611 124.796 140.275 124.908 139.944 124.908H139.939ZM140.216 118.529C140.291 118.465 140.382 118.411 140.478 118.363C140.408 118.273 140.344 118.166 140.286 118.048C140.28 118.032 140.27 118.022 140.264 118C140.238 118.011 140.077 118.086 140.056 118.097C140.109 118.241 140.163 118.385 140.211 118.529H140.216Z" fill="white"/>
<path d="M140.419 113.88C140.601 113.88 140.777 113.954 140.937 114.136C140.958 114.162 140.99 114.184 141.001 114.216C141.215 114.904 141.631 115.038 142.175 115.038C142.346 115.038 142.528 115.027 142.72 115.011C142.805 115.006 142.891 115.001 142.971 115.001C145.09 115.001 146.313 116.96 145.346 118.871C144.748 120.056 143.633 120.451 142.389 120.568C142.341 120.568 142.293 120.574 142.245 120.574C142.159 120.574 142.074 120.574 141.989 120.574C141.989 120.574 141.989 120.579 141.989 120.584C141.77 120.574 141.551 120.579 141.337 120.552C140.745 120.472 140.51 120.189 140.553 119.607C140.585 119.164 140.777 119.004 141.348 119.004C141.364 119.004 141.385 119.004 141.401 119.004C141.476 119.004 141.546 119.004 141.62 119.004C142.293 119.004 142.939 118.935 143.51 118.513C143.932 118.203 144.103 117.558 143.889 117.066C143.729 116.703 143.318 116.474 142.88 116.474C142.805 116.474 142.731 116.479 142.661 116.495C142.384 116.549 142.234 116.639 142.362 116.965C142.528 117.387 142.437 117.755 142.021 118.006C141.855 118.107 141.706 118.155 141.572 118.155C141.343 118.155 141.156 118.006 141.001 117.702C140.788 117.28 140.691 117.104 140.489 117.104C140.355 117.104 140.168 117.179 139.875 117.307C139.768 117.355 139.667 117.419 139.554 117.451C139.117 117.579 139.106 117.835 139.245 118.219C139.816 119.757 140.323 121.321 140.75 122.912C140.857 123.317 140.825 123.686 140.451 123.942C140.275 124.065 140.099 124.123 139.933 124.123C139.602 124.123 139.325 123.894 139.218 123.472C138.818 121.913 138.401 120.36 137.873 118.839C137.777 118.556 137.659 118.433 137.499 118.433C137.398 118.433 137.286 118.481 137.147 118.561C137.003 118.647 136.848 118.716 136.698 118.791C136.512 118.881 136.352 118.929 136.213 118.929C135.973 118.929 135.796 118.78 135.626 118.465C135.385 118.011 135.487 117.616 135.935 117.349C136.149 117.221 136.373 117.098 136.613 117.018C137.008 116.89 137.04 116.661 136.875 116.324C136.741 116.052 136.634 115.769 136.517 115.492C136.341 115.086 136.421 114.766 136.832 114.568C136.971 114.504 137.104 114.472 137.227 114.472C137.467 114.472 137.675 114.595 137.83 114.851C138.022 115.166 138.172 115.502 138.321 115.839C138.412 116.036 138.524 116.138 138.679 116.138C138.748 116.138 138.828 116.116 138.919 116.074C139.01 116.031 139.106 115.999 139.202 115.967C139.987 115.689 139.998 115.684 139.672 114.942C139.501 114.552 139.56 114.259 139.928 114.04C140.094 113.944 140.254 113.89 140.409 113.89M140.419 112.278C139.982 112.278 139.549 112.401 139.127 112.652C138.86 112.812 138.636 113.004 138.46 113.218C138.102 112.983 137.681 112.855 137.238 112.855C136.875 112.855 136.512 112.94 136.159 113.106C135.012 113.645 134.553 114.835 135.017 116.02C133.928 116.735 133.597 118.022 134.222 119.196C134.83 120.339 135.738 120.51 136.218 120.51C136.384 120.51 136.554 120.488 136.731 120.451C137.088 121.609 137.392 122.757 137.675 123.851C137.958 124.962 138.871 125.709 139.939 125.709C140.435 125.709 140.926 125.549 141.369 125.244C141.796 124.951 142.736 124.091 142.304 122.485C142.277 122.383 142.25 122.276 142.218 122.175C142.229 122.175 142.234 122.175 142.245 122.175C142.346 122.175 142.442 122.175 142.538 122.164C144.583 121.972 146.008 121.107 146.777 119.597C147.482 118.203 147.45 116.629 146.686 115.39C145.923 114.146 144.535 113.404 142.971 113.404C142.853 113.404 142.731 113.404 142.603 113.415C142.528 113.415 142.458 113.426 142.394 113.431C142.282 113.234 142.159 113.1 142.095 113.036C141.642 112.55 141.044 112.283 140.414 112.283L140.419 112.278Z" fill="#231F20"/>
<path d="M129.418 124.913C128.74 124.913 128.147 124.775 127.608 124.481C126.93 124.118 126.145 123.365 126.284 121.844C126.38 120.782 126.989 119.997 127.998 119.629C128.403 119.484 128.836 119.404 129.284 119.404C129.273 119.02 129.273 118.646 129.273 118.273C129.087 118.278 128.905 118.283 128.729 118.289C128.457 118.294 128.184 118.305 127.912 118.315C127.864 118.315 127.773 118.315 127.773 118.315C126.855 118.315 126.225 117.75 126.161 116.874C126.145 116.682 126.108 116.1 126.503 115.662C126.909 115.214 127.517 115.193 127.72 115.187C127.837 115.187 127.95 115.187 128.067 115.187H128.483C128.521 115.187 128.563 115.182 128.601 115.182H129.167C129.167 114.958 129.167 114.755 129.167 114.563C129.199 113.65 129.722 113.121 130.635 113.073C130.672 113.073 130.715 113.073 130.752 113.073C131.601 113.073 132.22 113.607 132.327 114.429C132.354 114.632 132.364 114.846 132.364 115.091C132.508 115.091 132.642 115.086 132.781 115.086C132.93 115.086 133.085 115.086 133.234 115.091C134.152 115.123 134.686 115.684 134.692 116.623C134.692 117.552 134.179 118.118 133.277 118.182C133.005 118.198 132.727 118.209 132.455 118.219H132.396C132.423 118.838 132.444 119.452 132.466 120.066L132.546 120.098C133.01 120.301 133.491 120.504 133.96 120.755C134.361 120.968 134.633 121.289 134.745 121.689C134.863 122.1 134.793 122.554 134.548 122.976C134.158 123.648 133.645 123.792 133.288 123.792C133.016 123.792 132.733 123.712 132.423 123.547L132.252 123.456C131.868 124.241 131.174 124.737 130.266 124.871C129.967 124.913 129.69 124.935 129.423 124.935L129.418 124.913Z" fill="white"/>
<path d="M130.757 113.858C131.201 113.858 131.478 114.077 131.537 114.515C131.574 114.798 131.569 115.086 131.558 115.369C131.537 115.742 131.697 115.892 132.028 115.892C132.049 115.892 132.076 115.892 132.103 115.892C132.327 115.876 132.556 115.871 132.786 115.871C132.93 115.871 133.069 115.871 133.213 115.876C133.704 115.892 133.891 116.111 133.896 116.613C133.896 117.114 133.715 117.333 133.229 117.365C132.829 117.392 132.428 117.397 132.023 117.419C131.713 117.429 131.574 117.589 131.585 117.904C131.617 118.705 131.649 119.511 131.676 120.317C131.686 120.584 131.868 120.675 132.081 120.766C132.588 120.985 133.101 121.198 133.587 121.454C134.035 121.689 134.115 122.122 133.859 122.565C133.699 122.842 133.517 122.981 133.293 122.981C133.154 122.981 132.994 122.928 132.807 122.832C132.717 122.783 132.631 122.735 132.54 122.687C132.252 122.533 132.087 122.442 131.969 122.442C131.809 122.442 131.74 122.607 131.58 123.002C131.318 123.632 130.811 123.969 130.154 124.065C129.914 124.102 129.668 124.123 129.428 124.123C128.937 124.123 128.457 124.033 127.998 123.787C127.25 123.387 127.021 122.725 127.09 121.924C127.16 121.166 127.56 120.654 128.281 120.392C128.622 120.269 128.975 120.21 129.332 120.21C129.412 120.21 129.487 120.21 129.567 120.216C129.594 120.216 129.62 120.216 129.647 120.216C129.973 120.216 130.122 120.072 130.106 119.698C130.08 119.127 130.085 118.561 130.085 117.99C130.085 117.632 129.941 117.456 129.594 117.456C129.572 117.456 129.551 117.456 129.53 117.456C128.98 117.488 128.425 117.483 127.875 117.515C127.843 117.515 127.811 117.515 127.779 117.515C127.288 117.515 126.999 117.28 126.967 116.815C126.925 116.228 127.138 116.004 127.757 115.983C127.864 115.983 127.971 115.983 128.078 115.983C128.254 115.983 128.435 115.983 128.612 115.983V115.972C128.798 115.972 128.98 115.972 129.167 115.972C129.284 115.972 129.402 115.972 129.519 115.972C129.53 115.972 129.54 115.972 129.546 115.972C129.871 115.972 129.999 115.807 129.989 115.481C129.978 115.182 129.973 114.878 129.983 114.573C129.999 114.077 130.202 113.879 130.693 113.853C130.72 113.853 130.741 113.853 130.768 113.853M129.428 122.682C129.903 122.682 130.181 122.431 130.17 122.047C130.16 121.534 129.754 121.625 129.487 121.588C128.9 121.588 128.585 121.807 128.612 122.17C128.649 122.655 129.039 122.677 129.386 122.687C129.402 122.687 129.412 122.687 129.428 122.687M130.757 112.257C130.704 112.257 130.651 112.257 130.597 112.257C129.322 112.326 128.483 113.132 128.382 114.381H128.355H128.072C127.95 114.381 127.821 114.381 127.699 114.387C126.935 114.413 126.332 114.659 125.916 115.129C125.499 115.588 125.318 116.196 125.366 116.933C125.446 118.07 126.188 118.887 127.272 119.079C126.236 119.613 125.595 120.573 125.489 121.775C125.355 123.301 125.974 124.513 127.234 125.191C127.886 125.538 128.622 125.714 129.423 125.714C129.727 125.714 130.042 125.687 130.378 125.639C131.281 125.506 132.023 125.095 132.546 124.454C132.791 124.534 133.037 124.577 133.282 124.577C133.747 124.577 134.622 124.417 135.236 123.365C135.588 122.757 135.69 122.074 135.508 121.454C135.338 120.851 134.916 120.349 134.329 120.034C133.966 119.842 133.597 119.677 133.24 119.517C133.234 119.335 133.229 119.154 133.218 118.972C133.25 118.972 133.288 118.972 133.32 118.967C134.644 118.881 135.492 117.952 135.487 116.607C135.482 115.241 134.606 114.328 133.261 114.28C133.213 114.28 133.165 114.28 133.117 114.28C132.941 113.073 132.001 112.267 130.757 112.267V112.257Z" fill="#231F20"/>
<path d="M149.522 124.374C149.009 124.374 148.513 124.123 148.054 123.627C147.152 122.656 146.644 121.422 146.511 119.864C146.484 119.533 146.49 119.218 146.495 118.913C146.495 118.785 146.5 118.663 146.5 118.534C146.452 117.648 146.527 116.655 146.741 115.449C146.938 114.307 147.691 113.901 148.331 113.901C148.636 113.901 148.95 113.986 149.271 114.152C150.296 114.68 150.109 115.716 150.04 116.106C150.002 116.324 149.949 116.538 149.901 116.752C149.826 117.088 149.751 117.403 149.725 117.712C149.671 118.278 149.634 118.988 149.751 119.698C150.034 119.469 150.322 119.431 150.493 119.431C150.728 119.431 150.958 119.501 151.176 119.639C151.977 120.141 152.287 121.193 151.886 122.026L151.801 122.207C151.593 122.65 151.374 123.104 151.032 123.536C150.584 124.097 150.077 124.38 149.527 124.38L149.522 124.374Z" fill="white"/>
<path d="M148.331 114.702C148.501 114.702 148.694 114.755 148.902 114.862C149.393 115.113 149.323 115.561 149.249 115.961C149.147 116.522 148.976 117.066 148.923 117.638C148.838 118.545 148.827 119.447 149.073 120.333C149.121 120.509 149.19 120.686 149.286 120.835C149.371 120.969 149.468 121.033 149.569 121.033C149.67 121.033 149.761 120.974 149.857 120.856C149.964 120.728 150.033 120.574 150.135 120.44C150.236 120.307 150.354 120.232 150.493 120.232C150.573 120.232 150.658 120.259 150.749 120.317C151.197 120.6 151.395 121.198 151.165 121.679C150.941 122.143 150.733 122.623 150.407 123.034C150.119 123.397 149.825 123.579 149.526 123.579C149.227 123.579 148.95 123.413 148.645 123.088C147.786 122.159 147.418 121.027 147.311 119.799C147.274 119.383 147.306 118.961 147.306 118.545C147.252 117.552 147.359 116.57 147.53 115.598C147.631 115.011 147.925 114.712 148.331 114.712M148.331 113.1C147.412 113.1 146.233 113.682 145.95 115.315C145.731 116.559 145.651 117.6 145.699 118.577C145.699 118.684 145.699 118.791 145.694 118.897C145.688 119.207 145.677 119.559 145.709 119.933C145.864 121.679 146.435 123.061 147.466 124.171C148.085 124.839 148.774 125.175 149.521 125.175C150.076 125.175 150.898 124.978 151.656 124.027C152.057 123.526 152.302 123.002 152.521 122.543L152.606 122.367C153.183 121.171 152.74 119.671 151.603 118.956C151.261 118.737 150.877 118.625 150.493 118.625C150.487 118.625 150.476 118.625 150.471 118.625C150.471 118.374 150.487 118.097 150.519 117.787C150.541 117.531 150.61 117.243 150.679 116.933C150.733 116.703 150.781 116.479 150.823 116.25C151.128 114.589 150.343 113.805 149.633 113.436C149.195 113.212 148.758 113.1 148.331 113.1Z" fill="#231F20"/>
<path d="M125.088 124.721C124.923 124.721 124.752 124.7 124.587 124.652C124.154 124.529 123.62 124.182 123.562 123.211C123.503 122.223 123.45 121.241 123.396 120.28L123.343 119.25C123.343 119.218 123.343 119.186 123.343 119.159C123.364 118.855 123.38 118.55 123.396 118.251C123.466 117.002 123.53 115.823 123.727 114.611C123.935 113.351 124.741 113.164 125.206 113.164C125.334 113.164 125.462 113.175 125.606 113.207C126.087 113.298 126.444 113.516 126.674 113.847C126.914 114.205 126.978 114.643 126.871 115.193C126.588 116.602 126.476 118.139 126.508 120.029C126.524 121.001 126.583 121.876 126.69 122.698C126.738 123.082 126.818 123.718 126.295 124.225C125.964 124.55 125.547 124.721 125.094 124.721H125.088Z" fill="white"/>
<path d="M125.212 113.965C125.286 113.965 125.372 113.975 125.462 113.991C126.007 114.093 126.215 114.402 126.087 115.038C125.756 116.693 125.681 118.358 125.708 120.04C125.724 120.963 125.777 121.881 125.895 122.794C125.932 123.088 125.991 123.403 125.735 123.648C125.548 123.83 125.324 123.92 125.089 123.92C124.993 123.92 124.897 123.904 124.801 123.878C124.454 123.782 124.379 123.467 124.363 123.157C124.283 121.817 124.213 120.483 124.144 119.201C124.24 117.669 124.283 116.191 124.523 114.733C124.614 114.194 124.822 113.959 125.212 113.959M125.212 112.363C124.283 112.363 123.199 112.918 122.943 114.477C122.74 115.726 122.671 116.981 122.601 118.193C122.585 118.497 122.569 118.796 122.548 119.105C122.548 119.169 122.548 119.228 122.548 119.292L122.601 120.317C122.655 121.278 122.708 122.266 122.767 123.253C122.863 124.833 123.925 125.292 124.373 125.42C124.608 125.484 124.854 125.522 125.089 125.522C125.745 125.522 126.37 125.266 126.85 124.796C127.662 124.006 127.534 123.013 127.486 122.639V122.597C127.379 121.801 127.325 120.952 127.309 120.013C127.277 118.187 127.39 116.703 127.656 115.347C127.806 114.589 127.699 113.933 127.341 113.399C127.101 113.041 126.631 112.582 125.761 112.417C125.569 112.379 125.388 112.363 125.212 112.363Z" fill="#231F20"/>
<path d="M155.687 121.855C155.271 121.855 154.694 121.678 154.347 120.84C154.006 120.029 153.557 119.25 153.162 118.582C152.623 117.675 152.986 116.976 153.504 116.623C153.819 116.41 154.171 116.218 154.598 116.218C154.87 116.218 155.265 116.298 155.628 116.693C156.509 117.659 157.102 118.652 157.443 119.719C157.47 119.81 157.486 119.901 157.491 119.976C157.491 119.997 157.497 120.05 157.502 120.077C157.518 120.899 156.893 121.63 156.013 121.817C155.901 121.839 155.794 121.855 155.687 121.855Z" fill="white"/>
<path d="M154.598 117.018C154.747 117.018 154.891 117.077 155.035 117.232C155.761 118.033 156.349 118.924 156.68 119.965C156.696 120.013 156.696 120.061 156.701 120.093C156.712 120.526 156.333 120.931 155.841 121.038C155.788 121.049 155.735 121.054 155.687 121.054C155.366 121.054 155.201 120.814 155.083 120.531C154.742 119.709 154.304 118.94 153.85 118.177C153.663 117.862 153.589 117.536 153.952 117.291C154.155 117.152 154.379 117.018 154.603 117.018M154.598 115.417C153.861 115.417 153.295 115.796 153.055 115.962C152.206 116.533 151.699 117.691 152.473 118.994C152.943 119.789 153.316 120.462 153.605 121.15C154.171 122.506 155.249 122.656 155.687 122.656C155.847 122.656 156.012 122.64 156.178 122.602C157.432 122.335 158.324 121.268 158.302 120.061C158.302 120.002 158.297 119.944 158.292 119.89C158.281 119.784 158.26 119.645 158.206 119.485C157.827 118.3 157.181 117.216 156.22 116.159C155.788 115.684 155.212 115.422 154.603 115.422L154.598 115.417Z" fill="#231F20"/>
<path d="M147.968 200.363L165.243 190.888L92.788 154.359C84.9303 150.398 75.6365 153.142 72.5831 160.321C69.5724 167.405 73.8856 175.887 82.0316 178.898L147.968 200.368V200.363Z" fill="#231F20"/>
<path d="M128.34 173.827L107.377 188.357L122.82 198.035L154.748 200.993C154.748 200.993 172.289 207.74 175.214 207.084C176.96 206.694 186.365 201.852 167.762 182.058L128.34 173.827Z" fill="#DE423B" stroke="#231F20" stroke-width="2" stroke-linecap="round" stroke-linejoin="round"/>
<path d="M163.149 192.302C162.012 192.302 160.891 191.912 159.994 191.213L154.218 186.67L149.313 190.14C149.174 190.236 149.014 190.29 148.848 190.29C148.645 190.29 148.443 190.215 148.293 190.065L135.562 177.697C135.289 177.435 135.241 177.014 135.444 176.693C135.594 176.453 135.855 176.32 136.122 176.32C136.213 176.32 136.309 176.336 136.4 176.368L148.768 180.916L149.478 177.019C149.521 176.779 149.67 176.576 149.884 176.458C150.001 176.394 150.135 176.362 150.268 176.362C150.375 176.362 150.476 176.384 150.578 176.426L165.119 182.496C166.998 183.281 168.199 185.031 168.252 187.065C168.311 189.099 167.206 190.914 165.375 191.8C164.687 192.131 163.918 192.307 163.155 192.307L163.149 192.302Z" fill="white"/>
<path d="M136.117 177.115L149.382 181.989L150.263 177.153L164.804 183.222C168.226 184.647 168.359 189.446 165.023 191.064C164.425 191.352 163.785 191.491 163.149 191.491C162.205 191.491 161.265 191.176 160.491 190.573L154.245 185.662L148.849 189.478L136.117 177.11M136.117 175.514C135.578 175.514 135.06 175.786 134.761 176.261C134.361 176.902 134.457 177.734 135.001 178.263L147.733 190.631C148.042 190.93 148.443 191.085 148.849 191.085C149.169 191.085 149.494 190.989 149.772 190.792L154.192 187.663L159.498 191.832C160.534 192.644 161.831 193.092 163.149 193.092C164.036 193.092 164.922 192.889 165.722 192.505C167.842 191.48 169.118 189.382 169.053 187.028C168.989 184.674 167.596 182.651 165.423 181.743L150.882 175.674C150.685 175.594 150.477 175.551 150.263 175.551C150.002 175.551 149.735 175.615 149.5 175.743C149.073 175.973 148.774 176.389 148.688 176.864L148.149 179.827L136.672 175.61C136.491 175.546 136.304 175.514 136.122 175.514H136.117Z" fill="#221F1F"/>
<path d="M111.06 202.039V190.888L183.514 154.359C191.372 150.398 200.666 153.142 203.719 160.321C206.73 167.405 202.417 175.887 194.271 178.898L111.06 202.044V202.039Z" fill="#231F20"/>
<path d="M136.854 172.247L158.394 177.088L146.164 192.372L118.817 200.875C118.817 200.875 98.4835 215.027 95.8038 215C94.2023 214.984 95.4889 200.875 104.11 189.638L136.849 172.247H136.854Z" fill="#DE423B" stroke="#231F20" stroke-width="2" stroke-linecap="round" stroke-linejoin="round"/>
<path d="M108.669 198.574C106.886 198.574 105.322 197.566 104.58 195.943C103.843 194.32 104.11 192.473 105.279 191.128L114.167 180.916C114.322 180.74 114.541 180.638 114.77 180.638C114.781 180.638 114.792 180.638 114.802 180.638C115.042 180.649 115.272 180.766 115.416 180.959L117.365 183.58L125.067 175.466C125.222 175.3 125.436 175.215 125.649 175.215C125.793 175.215 125.938 175.252 126.066 175.332C126.386 175.53 126.53 175.925 126.402 176.282L121.309 190.653C121.197 190.978 120.888 191.186 120.557 191.186C120.514 191.186 120.471 191.186 120.434 191.176L115.416 190.386L112.736 196.007C112 197.55 110.425 198.553 108.717 198.564H108.674L108.669 198.574Z" fill="white"/>
<path d="M125.649 176.026L120.556 190.397L114.946 189.516L112.005 195.676C111.396 196.952 110.115 197.769 108.7 197.779C108.7 197.779 108.679 197.779 108.663 197.779C105.503 197.779 103.795 194.053 105.876 191.656L114.764 181.445L117.284 184.834L125.638 176.026M125.649 174.425C125.222 174.425 124.8 174.596 124.485 174.927L117.439 182.352L116.056 180.494C115.768 180.105 115.32 179.87 114.834 179.848C114.813 179.848 114.791 179.848 114.77 179.848C114.305 179.848 113.868 180.046 113.563 180.398L104.675 190.61C103.298 192.196 102.978 194.368 103.848 196.279C104.718 198.19 106.565 199.381 108.663 199.381H108.711C110.724 199.365 112.581 198.18 113.446 196.365L115.87 191.283L120.295 191.982C120.38 191.993 120.46 192.003 120.546 192.003C121.213 192.003 121.827 191.582 122.056 190.936L127.149 176.565C127.4 175.85 127.122 175.06 126.476 174.665C126.215 174.505 125.927 174.43 125.638 174.43L125.649 174.425Z" fill="#221F1F"/>
<path d="M92.2371 57.5946C89.6374 57.5946 87.3474 56.2227 86.1089 53.9272L75.3846 34.0106C75.2671 33.7971 75.2565 33.5409 75.3526 33.322C75.4487 33.0978 75.6355 32.9323 75.8704 32.8629L81.737 31.1868L73.308 13.7791C73.1425 13.4374 73.2386 13.0317 73.5376 12.7968C73.6817 12.6847 73.8579 12.626 74.0287 12.626C74.2102 12.626 74.397 12.6901 74.5465 12.8129L94.0147 29.2543C94.3083 29.5052 94.383 29.927 94.1962 30.2633L89.8029 37.9929L97.287 45.7919C99.1233 47.703 99.7158 50.5429 98.803 53.0304C97.7834 55.8063 95.2051 57.5999 92.2425 57.5999L92.2371 57.5946Z" fill="white"/>
<path d="M74.0291 13.4269L93.4973 29.8684L88.8104 38.1159L96.7055 46.3473C98.339 48.0501 98.8621 50.5377 98.0454 52.7531C97.0685 55.4168 94.6557 56.7994 92.2375 56.7994C90.1182 56.7994 87.9936 55.7371 86.8139 53.5484L76.0896 33.6265L82.8743 31.6887L74.0344 13.4269M74.0291 11.8255C73.6821 11.8255 73.3351 11.9376 73.0468 12.1618C72.4489 12.6262 72.2568 13.4429 72.5877 14.1262L80.6003 30.6745L75.6465 32.0891C75.1821 32.2226 74.7977 32.5589 74.6109 33.0073C74.4241 33.4557 74.4454 33.9628 74.675 34.3898L85.3993 54.3118C86.7765 56.8741 89.3335 58.4008 92.2321 58.4008C95.5364 58.4008 98.4083 56.399 99.5454 53.3029C100.565 50.5324 99.9031 47.3669 97.8586 45.2369L90.7908 37.8703L94.8905 30.6585C95.2695 29.9859 95.12 29.1424 94.5328 28.646L75.0646 12.2045C74.7657 11.9536 74.3974 11.8255 74.0291 11.8255Z" fill="#221F1F"/>
<path d="M181.502 57.5947C178.534 57.5947 175.961 55.8011 174.941 53.0252C174.028 50.5377 174.621 47.6978 176.457 45.7867L183.941 37.9877L179.548 30.258C179.356 29.9217 179.431 29.5 179.73 29.2491L199.198 12.8076C199.347 12.6795 199.529 12.6208 199.716 12.6208C199.886 12.6208 200.063 12.6742 200.207 12.7916C200.506 13.0212 200.602 13.4322 200.436 13.7738L192.007 31.1815L197.874 32.8577C198.109 32.9218 198.296 33.0926 198.392 33.3168C198.488 33.541 198.472 33.7919 198.36 34.0054L187.635 53.922C186.397 56.2174 184.107 57.5894 181.507 57.5894L181.502 57.5947Z" fill="white"/>
<path d="M199.71 13.4269L190.87 31.6887L197.655 33.6265L186.931 53.5484C185.751 55.7371 183.627 56.7994 181.507 56.7994C179.089 56.7994 176.676 55.4168 175.699 52.7531C174.883 50.5377 175.406 48.0501 177.039 46.3473L184.934 38.1159L180.247 29.8684L199.716 13.4269M199.71 11.8255C199.342 11.8255 198.974 11.9536 198.675 12.2045L179.207 28.646C178.619 29.1424 178.465 29.9912 178.849 30.6585L182.949 37.8703L175.881 45.2369C173.836 47.3669 173.174 50.5324 174.194 53.3029C175.331 56.399 178.203 58.4008 181.507 58.4008C184.406 58.4008 186.963 56.8741 188.34 54.3118L199.064 34.3898C199.294 33.9628 199.321 33.4557 199.129 33.0073C198.942 32.5589 198.557 32.2226 198.093 32.0891L193.139 30.6745L201.152 14.1262C201.483 13.4483 201.29 12.6262 200.693 12.1618C200.404 11.9376 200.057 11.8255 199.71 11.8255Z" fill="#221F1F"/>
<path d="M102.348 86.6762C99.4604 86.6762 96.9729 84.4556 96.802 81.7224L93.4177 27.5509C93.3163 25.9708 93.8394 24.4815 94.891 23.3658C95.9159 22.2768 97.3199 21.6736 98.8413 21.6736H175.054C176.575 21.6736 177.979 22.2715 179.004 23.3658C180.056 24.4815 180.579 25.9708 180.477 27.5509L177.093 81.7224C176.922 84.4502 174.435 86.6762 171.547 86.6762H102.348Z" fill="#DE423B"/>
<path d="M175.054 22.4804C177.782 22.4804 179.847 24.7384 179.677 27.5036L176.292 81.6751C176.148 84.0025 174.023 85.8762 171.547 85.8762H102.348C99.8713 85.8762 97.7467 84.0025 97.6026 81.6751L94.2182 27.5036C94.0474 24.7384 96.1133 22.4804 98.841 22.4804H175.054ZM175.054 20.879H98.841C97.0955 20.879 95.4887 21.5676 94.309 22.822C93.1079 24.1032 92.5046 25.8007 92.6167 27.605L96.0011 81.7765C96.1986 84.9207 99.0439 87.4776 102.343 87.4776H171.541C174.84 87.4776 177.691 84.9207 177.883 81.7765L181.267 27.605C181.379 25.8007 180.782 24.1032 179.575 22.822C178.401 21.5676 176.789 20.879 175.043 20.879H175.054Z" fill="#231F20"/>
<path d="M108.358 79.7099C105.438 79.7099 102.945 77.4412 102.801 74.6547L100.762 35.6863C100.682 34.1489 101.205 32.7022 102.241 31.6133C103.266 30.535 104.664 29.9371 106.18 29.9371H167.548C169.064 29.9371 170.462 30.5296 171.487 31.6133C172.523 32.7022 173.046 34.1489 172.966 35.6863L170.932 74.6547C170.788 77.4412 168.295 79.7099 165.375 79.7099H108.353H108.358Z" fill="#FFF4E4"/>
<path d="M167.553 30.7377C170.249 30.7377 172.315 32.9424 172.176 35.6435L170.142 74.6119C170.019 76.9928 167.89 78.9092 165.386 78.9092H108.364C105.86 78.9092 103.73 76.9928 103.608 74.6119L101.568 35.6435C101.424 32.9424 103.495 30.7377 106.191 30.7377H167.559M167.553 29.1363H106.186C104.446 29.1363 102.844 29.8196 101.664 31.0634C100.479 32.3125 99.8762 33.9726 99.9669 35.7289L102.006 74.6974C102.172 77.9002 105.027 80.5106 108.364 80.5106H165.386C168.722 80.5106 171.573 77.9002 171.744 74.6974L173.777 35.7289C173.868 33.9726 173.265 32.3125 172.08 31.0634C170.9 29.8249 169.293 29.1363 167.559 29.1363H167.553Z" fill="#221F1F"/>
<path d="M157.785 49.6989C157.785 52.2665 154.918 54.3484 151.379 54.3484C147.84 54.3484 144.974 52.2665 144.974 49.6989" fill="#FFF4E4"/>
<path d="M157.785 49.6989C157.785 52.2665 154.918 54.3484 151.379 54.3484C147.84 54.3484 144.974 52.2665 144.974 49.6989" stroke="#221F1F" stroke-width="2" stroke-linecap="round" stroke-linejoin="round"/>
<path d="M137.725 62.6971C137.725 64.4373 135.776 65.8519 133.379 65.8519C130.983 65.8519 129.034 64.4373 129.034 62.6971" fill="#FFF4E4"/>
<path d="M137.725 62.6971C137.725 64.4373 135.776 65.8519 133.379 65.8519C130.983 65.8519 129.034 64.4373 129.034 62.6971" stroke="#221F1F" stroke-width="2" stroke-linecap="round" stroke-linejoin="round"/>
<path d="M137.724 62.6971C137.724 64.4373 139.672 65.8519 142.069 65.8519C144.466 65.8519 146.414 64.4373 146.414 62.6971" fill="#FFF4E4"/>
<path d="M137.724 62.6971C137.724 64.4373 139.672 65.8519 142.069 65.8519C144.466 65.8519 146.414 64.4373 146.414 62.6971" stroke="#221F1F" stroke-width="2" stroke-linecap="round" stroke-linejoin="round"/>
<path d="M127.448 49.6989C127.448 52.2665 124.582 54.3484 121.042 54.3484C117.503 54.3484 114.637 52.2665 114.637 49.6989" fill="#FFF4E4"/>
<path d="M127.448 49.6989C127.448 52.2665 124.582 54.3484 121.042 54.3484C117.503 54.3484 114.637 52.2665 114.637 49.6989" stroke="#221F1F" stroke-width="2" stroke-linecap="round" stroke-linejoin="round"/>
<path d="M149.271 93.2528L149.927 95.2492C150.76 97.7742 152.773 99.7386 155.319 100.513C158.031 101.335 160.972 100.694 163.097 98.8151L165.248 96.9147C165.248 96.9147 158.431 88.0801 149.276 93.2528H149.271Z" fill="#DE423B" stroke="#231F20" stroke-width="2" stroke-linecap="round" stroke-linejoin="round"/>
<path d="M124.144 93.2529L123.487 95.2494C122.655 97.7743 120.642 99.7387 118.096 100.513C115.384 101.335 112.443 100.694 110.318 98.8153L108.167 96.9149C108.167 96.9149 114.984 88.0802 124.139 93.2529H124.144Z" fill="#DE423B" stroke="#231F20" stroke-width="2" stroke-linecap="round" stroke-linejoin="round"/>
<path d="M60.3901 136.204C60.3901 136.204 61.6553 147.803 52.7939 151.102L60.3901 136.204Z" fill="#DE423B"/>
<path d="M60.3901 136.204C60.3901 136.204 61.6553 147.803 52.7939 151.102" stroke="#231F20" stroke-width="2" stroke-linecap="round" stroke-linejoin="round"/>
<path d="M214.097 136.204C214.097 136.204 212.624 146.464 221.694 151.102L214.097 136.204Z" fill="#DE423B"/>
<path d="M214.097 136.204C214.097 136.204 212.624 146.463 221.694 151.102" stroke="#231F20" stroke-width="2" stroke-linecap="round" stroke-linejoin="round"/>
<path d="M161.367 63.3646H156.178C154.804 63.3646 153.691 64.4784 153.691 65.8522C153.691 67.2261 154.804 68.3398 156.178 68.3398H161.367C162.741 68.3398 163.854 67.2261 163.854 65.8522C163.854 64.4784 162.741 63.3646 161.367 63.3646Z" fill="#EA6563"/>
<path d="M117.237 63.3645H112.048C110.674 63.3645 109.561 64.4783 109.561 65.8521C109.561 67.226 110.674 68.3397 112.048 68.3397H117.237C118.611 68.3397 119.724 67.226 119.724 65.8521C119.724 64.4783 118.611 63.3645 117.237 63.3645Z" fill="#EA6563"/>
<path d="M230.421 130.55C230.848 131.506 230.928 131.682 227.917 133.15C226.663 133.764 225.67 133.945 225.12 133.663C224.746 133.47 224.495 133.017 224.378 132.307C224.127 130.817 224.842 129.28 226.198 128.383C226.54 128.159 226.94 127.881 227.41 127.55C228.243 126.952 229.129 126.221 229.759 125.436C229.321 128.095 229.994 129.606 230.415 130.545L230.421 130.55ZM44.7227 125.442C45.3579 126.226 46.2387 126.958 47.0715 127.556C47.5412 127.892 47.9415 128.164 48.2832 128.388C49.6391 129.285 50.3544 130.823 50.1035 132.312C49.9861 133.017 49.7352 133.476 49.3615 133.668C48.8117 133.951 47.8188 133.769 46.5643 133.155C43.5589 131.682 43.6337 131.511 44.0608 130.556C44.4825 129.616 45.1551 128.105 44.7173 125.447L44.7227 125.442Z" stroke="white" stroke-width="2" stroke-miterlimit="10"/>
<path d="M204.681 96.9094L230.613 79.0373L236.058 85.4858L268.002 75.6369L236.058 99.7387L226.124 89.6069L204.681 96.9094Z" fill="#DE423B"/>
<path d="M63.3211 105.461L37.3884 87.589L31.9434 94.0374L0 84.1886L31.9434 108.296L41.8777 98.1585L63.3211 105.461Z" fill="#DE423B"/>
<path d="M194.41 113.837L202.823 108.039L204.584 110.132L214.946 106.94L204.584 114.755L201.365 111.467L194.41 113.837Z" fill="#DE423B"/>
<path d="M86.8405 86.3292L74.3759 77.7401L71.7603 80.8416L56.4131 76.1067L71.7603 87.6904L76.5325 82.822L86.8405 86.3292Z" fill="#DE423B"/>
</svg>
