<svg width="169" height="255" viewBox="0 0 169 255" fill="none" xmlns="http://www.w3.org/2000/svg">
<path d="M74.3225 40.761H20.6775L29.5178 50.9393H18.2822L29.5178 64.0862L20.6775 69.5098C20.6775 69.5098 32.6119 101.795 56.7136 115.533" fill="#DF423B"/>
<path d="M74.3225 40.761H20.6775L29.5178 50.9393H18.2822L29.5178 64.0862L20.6775 69.5098C20.6775 69.5098 32.6119 101.795 56.7136 115.533" stroke="#231F20" stroke-width="2" stroke-linecap="round" stroke-linejoin="round"/>
<path opacity="0.08" d="M168.528 233.009C168.789 221.244 131.379 210.874 84.9722 209.845C38.565 208.816 0.733035 217.519 0.472229 229.283C0.211424 241.047 37.6205 251.418 84.0278 252.447C130.435 253.476 168.267 244.773 168.528 233.009Z" fill="#181818"/>
<path d="M49.3136 212.967C48.6147 212.967 47.9099 212.895 47.223 212.746L34.8287 210.1C34.2612 209.981 33.7535 209.921 33.2816 209.921H32.983C27.6788 209.921 23.2945 205.937 22.7868 200.65C22.7629 200.418 22.7509 200.185 22.7449 199.952C22.6733 197.365 23.6349 194.904 25.4568 193.035C27.3562 191.081 30.0023 189.964 32.7261 189.964C33.6221 189.964 34.5181 190.084 35.3901 190.323L43.1553 192.443C43.8601 192.634 44.5888 192.736 45.3235 192.736C46.1538 192.736 46.9721 192.611 47.7666 192.366L66.809 186.446C67.8185 186.13 68.8399 185.974 69.8493 185.974C70.7632 185.974 71.6532 186.106 72.4955 186.369C76.4437 187.599 79.2511 191.058 79.6513 195.179C80.165 200.531 76.4198 205.405 71.1216 206.283C70.7812 206.337 70.3809 206.415 70.0226 206.534L52.5391 212.447C51.5058 212.8 50.4246 212.973 49.3315 212.973L49.3136 212.967Z" fill="#FFF5E5"/>
<path d="M69.8316 186.865C70.6379 186.865 71.4383 186.978 72.2089 187.217C75.6972 188.304 78.3672 191.392 78.7375 195.257C79.2154 200.191 75.7689 204.593 70.9545 205.387C70.5364 205.459 70.1123 205.537 69.7121 205.674L52.2286 211.588C51.2849 211.91 50.2933 212.065 49.3077 212.065C48.6686 212.065 48.0354 212 47.4023 211.862L35.008 209.216C34.4345 209.097 33.8552 209.019 33.2698 209.019C33.228 209.019 33.1862 209.019 33.1503 209.019C33.0906 209.019 33.0309 209.019 32.9711 209.019C28.2045 209.019 24.1308 205.399 23.6649 200.555C23.647 200.34 23.6291 200.125 23.6231 199.916C23.4738 194.773 27.8163 190.849 32.7083 190.849C33.5087 190.849 34.3211 190.956 35.1334 191.177L42.8985 193.298C43.687 193.513 44.4934 193.62 45.3057 193.62C46.2196 193.62 47.1335 193.483 48.0175 193.208L67.06 187.289C67.962 187.008 68.8997 186.859 69.8375 186.859M69.8316 185.073C68.7325 185.073 67.6215 185.246 66.5224 185.586L47.4799 191.506C46.7751 191.727 46.0404 191.834 45.2998 191.834C44.6487 191.834 43.9976 191.745 43.3704 191.577L35.6053 189.457C34.6556 189.2 33.6819 189.069 32.7083 189.069C29.7456 189.069 26.8606 190.287 24.7998 192.414C22.8108 194.462 21.7595 197.15 21.8371 199.982C21.8431 200.233 21.861 200.489 21.8849 200.74C22.4404 206.486 27.207 210.823 32.9771 210.823C33.0488 210.823 33.1205 210.823 33.1862 210.823H33.2758C33.6879 210.823 34.1359 210.877 34.6376 210.984L47.032 213.63C47.7786 213.792 48.5432 213.869 49.3077 213.869C50.4964 213.869 51.6731 213.678 52.8021 213.296L70.2855 207.382C70.5842 207.281 70.9426 207.215 71.2472 207.167C77.0113 206.218 81.085 200.913 80.5235 195.096C80.0934 190.616 77.0352 186.859 72.7405 185.515C71.8147 185.228 70.8351 185.079 69.8256 185.079L69.8316 185.073Z" fill="#221F1F"/>
<path d="M50.9563 194.929L45.4405 206.188C44.5391 208.028 42.3094 208.791 40.4695 207.89L35.2074 205.312L43.9923 187.38L49.2544 189.958C51.0943 190.859 51.8576 193.089 50.9563 194.929Z" fill="#231F20"/>
<path d="M38.2099 212.036C37.4812 212.036 36.7763 211.874 36.1193 211.552L31.508 209.294C31.2929 209.192 31.1317 209.007 31.054 208.78C30.9764 208.553 30.9943 208.308 31.0958 208.093L37.5468 194.928C37.7021 194.612 38.0187 194.427 38.3532 194.427C38.4846 194.427 38.622 194.457 38.7475 194.516L43.3588 196.774C44.4996 197.336 45.3538 198.303 45.7719 199.51C46.1841 200.711 46.1004 202.007 45.5449 203.148L42.4926 209.372C41.6863 211.014 40.0496 212.042 38.2158 212.042L38.2099 212.036Z" fill="#DF423B"/>
<path d="M38.3464 195.316L42.9576 197.574C44.875 198.512 45.6695 200.83 44.7257 202.747L41.6734 208.971C41.0044 210.339 39.6306 211.139 38.197 211.139C37.6236 211.139 37.0442 211.014 36.5006 210.745L31.8894 208.487L38.3404 195.322M38.3464 193.525C38.1492 193.525 37.9521 193.554 37.7669 193.62C37.319 193.775 36.9486 194.098 36.7396 194.528L30.2886 207.693C29.8525 208.583 30.2229 209.652 31.1069 210.088L35.7182 212.346C36.5006 212.728 37.3369 212.925 38.203 212.925C40.3832 212.925 42.3305 211.713 43.2862 209.754L46.3385 203.53C47.7123 200.728 46.5475 197.335 43.7461 195.962L39.1348 193.704C38.8899 193.584 38.6152 193.519 38.3464 193.519V193.525Z" fill="#231F20"/>
<path d="M27.0401 210.351C25.3915 210.351 23.7967 209.98 22.3094 209.252L18.5343 207.4C18.3193 207.299 18.158 207.113 18.0804 206.886C18.0027 206.659 18.0206 206.415 18.1222 206.199L31.5319 178.824C31.6872 178.508 32.0038 178.323 32.3383 178.323C32.4697 178.323 32.6071 178.353 32.7325 178.412L39.9362 181.942C41.6027 182.761 42.8571 184.176 43.4604 185.939C44.0637 187.701 43.9442 189.582 43.1259 191.255L36.7286 204.312C34.9068 208.033 31.1915 210.351 27.0461 210.351H27.0401Z" fill="#DF423B"/>
<path d="M32.3383 179.219L39.542 182.749C42.5465 184.224 43.7949 187.856 42.3195 190.86L35.9222 203.918C34.2079 207.418 30.6957 209.455 27.0461 209.455C25.5887 209.455 24.1073 209.132 22.7096 208.445L18.9345 206.594L32.3443 179.219M32.3383 177.427C32.1412 177.427 31.9441 177.457 31.7589 177.522C31.3109 177.678 30.9406 178 30.7315 178.43L17.3218 205.805C16.8857 206.695 17.2561 207.764 18.1401 208.201L21.9151 210.052C23.5279 210.841 25.2541 211.247 27.0401 211.247C31.5319 211.247 35.5519 208.744 37.529 204.706L43.9262 191.649C44.8521 189.767 44.9835 187.635 44.3026 185.646C43.6216 183.657 42.212 182.062 40.3244 181.136L33.1208 177.606C32.8759 177.487 32.6011 177.421 32.3323 177.421L32.3383 177.427Z" fill="#231F20"/>
<path d="M33.6877 212.167C33.3114 212.167 32.9471 212.048 32.6424 211.827C31.854 211.253 31.6807 210.142 32.2541 209.354C37.5225 202.132 35.0496 196.858 34.9421 196.637C34.6912 196.153 34.6912 195.562 34.9301 195.06C35.1033 194.713 35.3721 194.439 35.7126 194.259C35.9635 194.134 36.2383 194.068 36.519 194.068C37.188 194.068 37.7913 194.439 38.0959 195.036C38.2453 195.335 41.7157 202.383 35.1093 211.438C34.7748 211.892 34.2432 212.167 33.6758 212.167H33.6877Z" fill="white"/>
<path d="M36.5255 194.97C36.8421 194.97 37.1527 195.143 37.308 195.448C37.4513 195.723 40.6828 202.299 34.3991 210.913C34.2258 211.145 33.963 211.271 33.6942 211.271C33.515 211.271 33.3358 211.217 33.1805 211.104C32.7923 210.817 32.7026 210.273 32.9894 209.879C38.6519 202.12 35.7848 196.296 35.7549 196.236C35.6235 195.98 35.6295 195.693 35.749 195.454C35.8266 195.293 35.964 195.149 36.1372 195.06C36.2627 194.994 36.4 194.964 36.5374 194.964M36.5255 193.178C36.1074 193.178 35.6892 193.28 35.3129 193.471C34.7933 193.734 34.3871 194.152 34.1303 194.672C33.7659 195.418 33.7719 196.296 34.1362 197.037C34.2676 197.312 36.4001 202.15 31.526 208.828C30.6599 210.017 30.9227 211.689 32.1113 212.555C32.5713 212.89 33.1148 213.069 33.6823 213.069C34.5305 213.069 35.3368 212.657 35.8386 211.976C42.7734 202.472 39.0581 194.952 38.8968 194.636C38.4369 193.74 37.529 193.184 36.5195 193.184L36.5255 193.178Z" fill="#221F1F"/>
<path d="M30.397 212.316C30.0326 212.316 29.6802 212.203 29.3815 211.994C28.9933 211.719 28.7364 211.319 28.6528 210.853C28.5692 210.387 28.6767 209.915 28.9515 209.527C34.0585 202.245 30.845 197.545 30.7016 197.353C30.3253 196.822 30.2715 196.129 30.5583 195.544C30.6837 195.287 30.8808 195.054 31.1138 194.887C31.4184 194.672 31.7708 194.558 32.1471 194.558C32.7146 194.558 33.2462 194.833 33.5807 195.293C33.7838 195.573 38.413 202.216 31.8484 211.57C31.5199 212.041 30.9764 212.322 30.397 212.322V212.316Z" fill="white"/>
<path d="M32.1415 195.454C32.4103 195.454 32.6791 195.579 32.8463 195.818C33.0315 196.075 37.3143 202.204 31.1082 211.056C30.9409 211.301 30.6661 211.426 30.3914 211.426C30.2182 211.426 30.0449 211.373 29.8896 211.265C29.4954 210.99 29.3939 210.441 29.6746 210.047C35.1281 202.264 31.58 197.055 31.4247 196.834C31.2336 196.565 31.2157 196.219 31.353 195.938C31.4128 195.812 31.5084 195.699 31.6278 195.615C31.7831 195.508 31.9623 195.454 32.1355 195.454M32.1415 193.662C31.58 193.662 31.0484 193.835 30.5885 194.158C30.2301 194.415 29.9374 194.755 29.7463 195.149C29.3162 196.027 29.3998 197.067 29.9673 197.867C30.0867 198.04 32.918 202.305 28.2112 209.013C27.805 209.593 27.6437 210.303 27.7691 211.002C27.8946 211.707 28.2829 212.316 28.8682 212.728C29.3222 213.045 29.8478 213.212 30.3974 213.212C31.2635 213.212 32.0818 212.788 32.5835 212.077C39.5124 202.204 34.5248 195.066 34.3098 194.767C33.808 194.074 33.0017 193.662 32.1475 193.662H32.1415Z" fill="#221F1F"/>
<path d="M19.6694 218.158C17.758 218.158 15.9123 217.728 14.186 216.88L13.9471 216.76C13.5051 216.545 13.3199 216.008 13.535 215.56L23.7311 194.749C23.8864 194.433 24.203 194.247 24.5375 194.247C24.6689 194.247 24.8063 194.277 24.9317 194.337L25.1707 194.456C31.3529 197.485 33.9214 204.975 30.893 211.157C28.7785 215.47 24.4778 218.152 19.6754 218.152L19.6694 218.158Z" fill="white"/>
<path d="M24.5306 195.149L24.7696 195.269C30.5158 198.082 32.8931 205.023 30.0797 210.775C28.0667 214.885 23.9512 217.268 19.6625 217.268C17.9542 217.268 16.216 216.886 14.5734 216.085L14.3344 215.966L24.5306 195.155M24.5306 193.358C24.3335 193.358 24.1364 193.387 23.9513 193.453C23.5033 193.608 23.1329 193.931 22.9239 194.361L12.7277 215.172C12.5186 215.596 12.4887 216.091 12.644 216.539C12.7993 216.987 13.1219 217.358 13.552 217.567L13.7909 217.686C15.6426 218.594 17.6197 219.054 19.6685 219.054C24.8174 219.054 29.4286 216.181 31.6925 211.558C33.2634 208.35 33.4904 204.718 32.3376 201.338C31.1788 197.957 28.7776 195.227 25.564 193.656L25.3251 193.537C25.0802 193.417 24.8054 193.352 24.5366 193.352L24.5306 193.358Z" fill="#231F20"/>
<path d="M32.2415 179.151L14.2435 215.889L13.0581 215.308C10.8856 214.244 9.98534 211.615 11.0496 209.442L25.1926 180.573C26.2569 178.4 28.8863 177.5 31.0587 178.564L32.2441 179.145L32.2415 179.151Z" fill="#231F20"/>
<path d="M51.7567 194.528L66.0325 215.1C68.5771 218.767 73.8156 219.269 77.0052 216.145L88.5036 204.898C91.974 201.505 91.1736 195.729 86.9147 193.405L64.4437 181.136C61.7677 179.673 58.4645 180.055 56.1888 182.08L52.8796 185.025C50.1499 187.45 49.6661 191.536 51.7447 194.534L51.7567 194.528Z" fill="#231F20"/>
<path d="M106.817 202.347L125.185 216.522L134.491 207.986L122.156 186.966" fill="#FFF5E5"/>
<path d="M106.817 202.347L125.185 216.522L134.491 207.986L122.156 186.966" stroke="#221F1F" stroke-width="2" stroke-linecap="round" stroke-linejoin="round"/>
<path d="M118.157 208.464L129.135 202.406C130.929 201.416 133.193 202.07 134.183 203.864L137.014 208.995L119.53 218.642L116.699 213.511C115.71 211.718 116.364 209.453 118.157 208.464Z" fill="#231F20"/>
<path d="M128.704 216.282C128.387 216.282 128.083 216.115 127.921 215.816L125.436 211.319C124.17 209.019 125.006 206.116 127.306 204.85L133.375 201.499C134.08 201.111 134.874 200.907 135.674 200.907C137.413 200.907 139.008 201.851 139.844 203.368L142.329 207.866C142.442 208.075 142.472 208.32 142.406 208.547C142.34 208.774 142.185 208.971 141.976 209.085L129.14 216.169C129.002 216.247 128.853 216.282 128.71 216.282H128.704Z" fill="#DF423B"/>
<path d="M135.668 201.803C137.029 201.803 138.349 202.526 139.054 203.804L141.539 208.302L128.703 215.386L126.218 210.889C125.185 209.019 125.866 206.666 127.735 205.638L133.804 202.287C134.395 201.959 135.034 201.803 135.668 201.803ZM135.668 200.011C134.718 200.011 133.774 200.256 132.938 200.716L126.869 204.067C125.549 204.796 124.587 205.996 124.169 207.448C123.751 208.899 123.918 210.429 124.653 211.749L127.138 216.247C127.365 216.665 127.753 216.969 128.207 217.101C128.368 217.148 128.536 217.172 128.703 217.172C129.001 217.172 129.3 217.095 129.569 216.951L142.405 209.867C143.271 209.389 143.588 208.296 143.11 207.43L140.625 202.932C139.628 201.128 137.728 200.005 135.668 200.005V200.011Z" fill="#231F20"/>
<path d="M124.39 232.912C124.306 232.912 124.223 232.9 124.139 232.876C123.912 232.81 123.715 232.655 123.601 232.446L119.725 225.421C118.829 223.797 118.614 221.915 119.134 220.129C119.653 218.343 120.83 216.868 122.455 215.966L135.189 208.941C136.784 208.063 138.576 207.597 140.386 207.597C144.316 207.597 147.93 209.73 149.83 213.17L151.861 216.85C151.974 217.059 152.004 217.304 151.938 217.531C151.873 217.758 151.717 217.955 151.508 218.068L124.82 232.798C124.689 232.87 124.539 232.912 124.39 232.912Z" fill="#DF423B"/>
<path d="M140.387 208.499C143.869 208.499 147.244 210.345 149.042 213.606L151.073 217.286L124.385 232.016L120.508 224.991C118.889 222.058 119.952 218.373 122.885 216.754L135.62 209.73C137.131 208.893 138.768 208.499 140.381 208.499M140.393 206.707C138.433 206.707 136.486 207.209 134.766 208.159L122.031 215.183C120.191 216.199 118.859 217.865 118.28 219.878C117.701 221.891 117.933 224.018 118.949 225.851L122.826 232.876C123.154 233.467 123.763 233.802 124.396 233.802C124.689 233.802 124.988 233.73 125.263 233.581L151.951 218.851C152.369 218.624 152.673 218.236 152.805 217.782C152.936 217.328 152.883 216.832 152.65 216.42L150.619 212.74C148.564 209.019 144.646 206.707 140.393 206.707Z" fill="#231F20"/>
<path d="M109.117 210.231L126.237 195.436C128.925 193.315 129.199 189.343 126.822 186.876L121.637 181.489C120.502 180.312 118.919 179.667 117.283 179.721L76.8445 180.993C71.4268 181.166 64.8742 190.538 69.157 193.865L101.98 210.255C104.082 211.886 107.021 211.874 109.111 210.231H109.117Z" fill="#231F20"/>
<path d="M130.495 217.77C130.411 217.77 130.327 217.77 130.244 217.752C129.276 217.615 128.601 216.719 128.738 215.751C128.786 215.422 129.981 207.657 140.595 204.032C140.78 203.966 140.972 203.936 141.169 203.936C141.927 203.936 142.602 204.42 142.847 205.137C143.164 206.056 142.668 207.066 141.748 207.382C133.29 210.274 132.292 216.008 132.251 216.253C132.173 216.79 131.839 217.28 131.355 217.549C131.092 217.692 130.799 217.77 130.501 217.77H130.495Z" fill="white"/>
<path d="M141.169 204.832C141.533 204.832 141.874 205.059 141.999 205.423C142.155 205.883 141.916 206.379 141.456 206.534C132.365 209.64 131.373 216.055 131.367 216.121C131.325 216.402 131.158 216.635 130.925 216.766C130.8 216.838 130.656 216.874 130.507 216.874C130.465 216.874 130.423 216.874 130.387 216.868C129.91 216.802 129.575 216.36 129.641 215.882C129.683 215.577 130.806 208.332 140.9 204.885C140.996 204.856 141.091 204.838 141.181 204.838M141.169 203.04C140.876 203.04 140.584 203.088 140.309 203.183C129.181 206.988 127.903 215.279 127.855 215.631C127.652 217.089 128.673 218.439 130.125 218.642C130.25 218.66 130.37 218.666 130.495 218.666C130.943 218.666 131.391 218.552 131.779 218.331C132.502 217.931 133.01 217.208 133.129 216.39C133.183 216.091 134.21 210.9 142.029 208.23C143.421 207.753 144.162 206.235 143.69 204.844C143.319 203.762 142.31 203.04 141.169 203.04Z" fill="#221F1F"/>
<path d="M134.36 219.884C133.398 219.884 132.604 219.102 132.592 218.14C132.592 217.794 132.61 209.7 143.343 205.799C143.541 205.728 143.744 205.692 143.947 205.692C144.687 205.692 145.356 206.164 145.613 206.857C145.775 207.305 145.751 207.782 145.554 208.213C145.35 208.643 144.998 208.965 144.55 209.126C136.2 212.161 136.128 217.853 136.128 218.098C136.128 218.749 135.781 219.347 135.208 219.663C134.957 219.801 134.664 219.878 134.372 219.884H134.354H134.36Z" fill="white"/>
<path d="M143.953 206.594C144.312 206.594 144.646 206.815 144.778 207.173C144.945 207.627 144.712 208.129 144.252 208.296C135.316 211.54 135.238 217.847 135.238 218.116C135.238 218.451 135.059 218.737 134.784 218.887C134.665 218.952 134.522 218.994 134.372 218.994C134.372 218.994 134.372 218.994 134.366 218.994C133.889 218.994 133.5 218.612 133.494 218.134C133.494 217.818 133.494 210.339 143.661 206.654C143.756 206.618 143.858 206.6 143.959 206.6M143.953 204.802C143.643 204.802 143.338 204.856 143.045 204.963C131.708 209.073 131.696 217.788 131.702 218.152C131.726 219.603 132.921 220.78 134.366 220.78C134.832 220.78 135.268 220.661 135.651 220.452C136.505 219.98 137.036 219.078 137.03 218.098C137.03 217.889 137.162 212.77 144.861 209.975C145.53 209.736 146.062 209.246 146.366 208.601C146.671 207.956 146.701 207.227 146.456 206.558C146.074 205.507 145.064 204.802 143.947 204.802H143.953Z" fill="#221F1F"/>
<path d="M139.92 224.34C139.837 224.34 139.753 224.328 139.669 224.304C139.442 224.239 139.245 224.083 139.132 223.874L139 223.641C137.388 220.726 137.011 217.351 137.937 214.15C138.863 210.948 140.977 208.296 143.898 206.683C145.744 205.668 147.823 205.13 149.919 205.13C154.471 205.13 158.664 207.603 160.862 211.581L160.994 211.814C161.107 212.023 161.137 212.268 161.071 212.495C161.005 212.722 160.85 212.919 160.641 213.033L140.35 224.233C140.219 224.304 140.07 224.346 139.92 224.346V224.34Z" fill="white"/>
<path d="M149.926 206.027C154.012 206.027 157.972 208.189 160.081 212.018L160.212 212.251L139.921 223.45L139.79 223.217C136.696 217.614 138.732 210.566 144.335 207.472C146.109 206.492 148.033 206.027 149.926 206.027ZM149.926 204.235C147.68 204.235 145.446 204.814 143.475 205.901C137.018 209.467 134.659 217.62 138.225 224.077L138.356 224.31C138.685 224.902 139.294 225.236 139.927 225.236C140.22 225.236 140.518 225.165 140.793 225.015L161.084 213.816C161.502 213.589 161.807 213.2 161.938 212.746C162.07 212.292 162.016 211.797 161.783 211.384L161.652 211.152C159.298 206.887 154.806 204.235 149.926 204.235Z" fill="#231F20"/>
<path d="M124.431 232.137L160.25 212.372L160.888 213.528C162.057 215.646 161.285 218.316 159.167 219.484L131.021 235.016C128.902 236.185 126.232 235.413 125.064 233.295L124.426 232.14L124.431 232.137Z" fill="#231F20"/>
<path d="M103.694 171.914C101.884 171.914 100.069 171.472 98.4498 170.635C92.847 167.738 90.6488 160.827 93.5458 155.225L101.401 140.035C103.372 136.218 107.272 133.853 111.567 133.853C113.377 133.853 115.193 134.295 116.811 135.131C119.523 136.534 121.53 138.912 122.456 141.821C123.382 144.73 123.119 147.83 121.715 150.542L113.861 165.731C111.889 169.548 107.989 171.92 103.694 171.92V171.914Z" fill="#DF423B"/>
<path d="M111.567 134.742C113.197 134.742 114.852 135.125 116.399 135.925C121.572 138.601 123.596 144.957 120.921 150.129L113.066 165.319C111.19 168.939 107.511 171.017 103.694 171.017C102.063 171.017 100.409 170.635 98.8616 169.835C93.6888 167.159 91.6639 160.803 94.3399 155.631L102.195 140.441C104.07 136.821 107.75 134.742 111.567 134.742ZM111.567 132.95C106.931 132.95 102.732 135.507 100.606 139.622L92.7511 154.812C89.6271 160.851 91.9984 168.306 98.0433 171.43C99.7874 172.332 101.747 172.809 103.7 172.809C108.335 172.809 112.534 170.253 114.661 166.137L122.515 150.948C125.639 144.909 123.268 137.454 117.223 134.33C115.479 133.428 113.52 132.95 111.567 132.95Z" fill="#231F20"/>
<path d="M70.1486 160.756C69.6528 160.756 69.169 160.648 68.715 160.445L50.6104 152.172C49.7741 151.79 49.135 151.103 48.8125 150.243C48.4899 149.383 48.5257 148.445 48.908 147.609L50.2221 144.736C50.7836 143.511 52.0141 142.723 53.358 142.723C53.8538 142.723 54.3376 142.83 54.7916 143.033L72.8962 151.306C74.6285 152.095 75.3871 154.143 74.5986 155.876L73.2845 158.749C72.723 159.973 71.4926 160.762 70.1486 160.762V160.756Z" fill="#DF423B"/>
<path d="M53.3575 143.607C53.7099 143.607 54.0743 143.679 54.4148 143.84L72.5194 152.113C73.8037 152.698 74.3651 154.209 73.7798 155.493L72.4657 158.367C72.0356 159.304 71.1098 159.86 70.1421 159.86C69.7897 159.86 69.4253 159.788 69.0849 159.627L50.9802 151.354C49.696 150.769 49.1345 149.258 49.7198 147.973L51.0339 145.1C51.464 144.162 52.3899 143.607 53.3575 143.607ZM53.3575 141.815C51.6611 141.815 50.1081 142.813 49.4033 144.354L48.0892 147.227C47.0917 149.407 48.0534 151.987 50.2336 152.985L68.3382 161.258C68.9117 161.52 69.5149 161.652 70.1421 161.652C71.8385 161.652 73.3915 160.654 74.0963 159.113L75.4104 156.24C75.8943 155.183 75.9361 154.006 75.5299 152.919C75.1237 151.832 74.3233 150.966 73.2661 150.488L55.1614 142.215C54.588 141.952 53.9847 141.821 53.3575 141.821V141.815Z" fill="#231F20"/>
<path d="M127.013 122.36C126.828 122.36 126.637 122.36 126.452 122.354C120.52 122.205 115.001 119.756 110.916 115.461C106.824 111.167 104.656 105.534 104.805 99.6027C105.104 87.6623 115.061 77.95 126.995 77.95C127.181 77.95 127.372 77.95 127.557 77.9559C133.488 78.1053 139.007 80.5542 143.093 84.8489C147.179 89.1496 149.353 94.7763 149.204 100.708C148.905 112.648 138.954 122.36 127.013 122.36Z" fill="#FFF5E5"/>
<path d="M126.989 78.8398C127.168 78.8398 127.347 78.8398 127.533 78.8458C139.3 79.1385 148.6 88.9165 148.307 100.684C148.021 112.272 138.535 121.464 127.013 121.464C126.834 121.464 126.655 121.464 126.469 121.458C114.702 121.166 105.402 111.388 105.695 99.6205C105.981 88.0325 115.467 78.8398 126.989 78.8398ZM126.989 77.0479C120.938 77.0479 115.216 79.3774 110.879 83.6004C106.531 87.8354 104.058 93.5099 103.903 99.5726C103.586 112.307 113.687 122.928 126.422 123.244C126.619 123.244 126.81 123.25 127.007 123.25C133.058 123.25 138.78 120.921 143.117 116.698C147.465 112.463 149.938 106.788 150.093 100.725C150.249 94.5552 147.991 88.6955 143.738 84.2276C139.485 79.7537 133.745 77.2091 127.574 77.0538C127.377 77.0538 127.186 77.0479 126.989 77.0479Z" fill="#221F1F"/>
<path d="M46.2734 124.63C37.8811 124.63 30.2951 119.989 26.4842 112.523C23.7844 107.242 23.3065 101.221 25.1283 95.5827C26.9501 89.944 30.8686 85.3447 36.1488 82.6448C39.3146 81.0261 42.7074 80.2078 46.2375 80.2078C54.6298 80.2078 62.2157 84.8489 66.0266 92.3153C71.5996 103.216 67.2631 116.626 56.3561 122.199C53.1903 123.818 49.7975 124.636 46.2674 124.636L46.2734 124.63Z" fill="#FFF5E5"/>
<path d="M46.2369 81.0977C53.9841 81.0977 61.4625 85.3387 65.2315 92.7155C70.5895 103.198 66.4321 116.035 55.9552 121.393C52.8492 122.982 49.54 123.734 46.2727 123.734C38.5255 123.734 31.0471 119.493 27.278 112.116C21.9201 101.633 26.0774 88.7971 36.5544 83.4392C39.6604 81.8503 42.9696 81.0977 46.2369 81.0977ZM46.2369 79.3058C42.5634 79.3058 39.0332 80.1599 35.742 81.8384C30.2467 84.6458 26.173 89.4243 24.2735 95.296C22.3741 101.168 22.8758 107.427 25.6832 112.923C29.6553 120.694 37.54 125.514 46.2727 125.514C49.9462 125.514 53.4763 124.66 56.7675 122.982C62.2629 120.174 66.3366 115.396 68.236 109.524C70.1355 103.652 69.6338 97.3925 66.8264 91.8972C62.8542 84.1261 54.9697 79.2998 46.2369 79.2998V79.3058Z" fill="#221F1F"/>
<path d="M48.7107 115.288C43.3766 115.288 38.5563 112.337 36.1312 107.595C32.5891 100.666 35.3487 92.1421 42.2776 88.6C44.2906 87.5726 46.4469 87.053 48.6928 87.053C54.0268 87.053 58.8472 90.0037 61.2723 94.7464C64.8144 101.675 62.0547 110.199 55.1259 113.741C53.1129 114.769 50.9566 115.288 48.7167 115.288H48.7107Z" fill="#FFF5E5"/>
<path d="M48.6863 87.943C53.4947 87.943 58.1299 90.5771 60.4714 95.1525C63.7925 101.651 61.2181 109.62 54.7133 112.941C52.7839 113.926 50.7351 114.392 48.7102 114.392C43.9018 114.392 39.2667 111.758 36.9252 107.183C33.6041 100.684 36.1785 92.7155 42.6833 89.3945C44.6126 88.4089 46.6614 87.943 48.6863 87.943ZM48.6863 86.151C46.2971 86.151 44.0034 86.7065 41.865 87.7996C34.4941 91.5687 31.5613 100.63 35.3303 108.001C37.9108 113.048 43.0357 116.184 48.7102 116.184C51.0995 116.184 53.3932 115.629 55.5316 114.536C59.1036 112.714 61.7496 109.608 62.9801 105.791C64.2166 101.974 63.8881 97.9062 62.0662 94.3402C59.4858 89.2929 54.3608 86.157 48.6863 86.157V86.151Z" fill="#221F1F"/>
<path d="M92.0216 139.014C91.5975 139.014 91.1734 139.014 90.7433 138.996C77.3037 138.661 64.8019 133.112 55.5375 123.376C46.2731 113.639 41.3572 100.875 41.6917 87.4352C42.0202 74.2226 47.414 61.8641 56.8874 52.6415C66.337 43.4369 78.803 38.3657 91.9798 38.3657C92.4039 38.3657 92.828 38.3657 93.258 38.3836C106.698 38.7181 119.2 44.2672 128.464 54.0034C137.728 63.7397 142.644 76.5043 142.31 89.9439C141.981 103.157 136.587 115.515 127.114 124.738C117.664 133.942 105.198 139.014 92.0216 139.014Z" fill="#FFF5E5"/>
<path d="M91.9746 39.2675C92.3927 39.2675 92.8108 39.2675 93.2289 39.2855C120.514 39.9664 142.089 62.6345 141.409 89.9259C140.74 116.793 118.746 138.123 92.0224 138.123C91.6042 138.123 91.1861 138.123 90.768 138.106C63.4826 137.425 41.9075 114.756 42.5884 87.465C43.2574 60.5977 65.2506 39.2735 91.9746 39.2675ZM91.9746 37.4756C78.5648 37.4756 65.8778 42.6364 56.261 52.0083C46.6263 61.3921 41.131 73.9716 40.7965 87.4172C40.0916 115.652 62.491 139.193 90.7202 139.891C91.1562 139.903 91.5863 139.909 92.0164 139.909C105.426 139.909 118.113 134.749 127.73 125.377C137.365 115.993 142.86 103.413 143.195 89.9618C143.535 76.2832 138.529 63.2976 129.098 53.3821C119.666 43.4726 106.943 37.822 93.2648 37.4816C92.8287 37.4696 92.3987 37.4636 91.9686 37.4636L91.9746 37.4756Z" fill="#221F1F"/>
<path d="M133.159 116.955C133.069 116.955 132.973 116.943 132.884 116.913C132.525 116.799 132.274 116.465 132.263 116.088L131.426 89.7229C131.414 89.3705 131.612 89.042 131.928 88.8867C132.054 88.8269 132.185 88.7971 132.322 88.7971C132.525 88.7971 132.728 88.8688 132.896 89.0062L141.342 96.0187C141.533 96.1799 141.652 96.4069 141.664 96.6578C142.184 105.629 134.21 116.16 133.869 116.602C133.696 116.829 133.433 116.955 133.159 116.955Z" fill="#DF423B"/>
<path d="M132.322 89.6989L140.768 96.7114C141.276 105.456 133.159 116.058 133.159 116.058L132.322 89.693M132.322 87.907C132.053 87.907 131.785 87.9667 131.534 88.0861C130.901 88.3967 130.506 89.0478 130.53 89.7527L131.367 116.118C131.39 116.877 131.886 117.534 132.609 117.767C132.788 117.827 132.973 117.85 133.159 117.85C133.708 117.85 134.234 117.6 134.58 117.146C134.927 116.692 143.098 105.904 142.56 96.6039C142.53 96.1081 142.297 95.6482 141.915 95.3316L133.469 88.3191C133.141 88.0443 132.734 87.907 132.322 87.907Z" fill="#231F20"/>
<path d="M52.2227 120.216C51.924 120.216 51.6433 120.067 51.476 119.816C51.04 119.153 40.796 103.515 41.7637 94.5913C41.7995 94.2389 42.0384 93.9462 42.3729 93.8387L62.8907 87.0949C62.9803 87.0651 63.0759 87.0472 63.1715 87.0472C63.4104 87.0472 63.6374 87.1427 63.8106 87.3159C64.0496 87.5608 64.1272 87.9193 64.0197 88.2358L53.0709 119.613C52.9574 119.935 52.6707 120.162 52.3362 120.204C52.3003 120.204 52.2645 120.21 52.2227 120.21V120.216Z" fill="#DF423B"/>
<path d="M63.1717 87.9428L52.2229 119.32C52.2229 119.32 41.7102 103.389 42.6539 94.6866L63.1717 87.9428ZM63.1717 86.1509C62.9866 86.1509 62.7954 86.1808 62.6103 86.2405L42.0924 92.9842C41.4234 93.2052 40.9456 93.7965 40.8679 94.4954C39.8644 103.736 50.2756 119.636 50.7236 120.311C51.0581 120.819 51.6196 121.118 52.2169 121.118C52.2886 121.118 52.3663 121.118 52.4379 121.106C53.1129 121.022 53.6863 120.562 53.9073 119.917L64.8562 88.5401C65.0832 87.895 64.9219 87.1783 64.444 86.6945C64.1035 86.348 63.6376 86.1569 63.1658 86.1569L63.1717 86.1509Z" fill="#231F20"/>
<path d="M65.4774 186.459C61.9651 186.459 59.1518 186.387 57.1149 186.249C53.4952 185.999 52.3842 185.592 52.3543 184.505C52.2588 180.414 54.7615 172.416 56.9716 165.361C58.4051 160.792 59.7551 156.473 60.0298 154.317L60.1254 153.582C60.7048 148.983 61.3081 144.234 64.0259 140.25C65.8776 137.538 68.5058 135.191 71.6178 133.465C72.1255 133.184 72.7587 132.969 73.4336 132.748C74.2161 132.485 75.1061 132.186 75.4824 131.846C75.6019 131.738 75.7512 131.667 75.9065 131.631L91.8967 128.465C91.9564 128.453 92.0102 128.447 92.0699 128.447C92.0759 128.447 92.0878 128.447 92.0938 128.447C106.035 128.841 108.072 128.901 108.395 128.913C109.189 128.931 109.888 129.63 112.695 133.924C113.006 134.402 113.251 134.779 113.376 134.946C117.611 140.71 118.101 148.439 118.537 155.255L118.549 155.434C118.764 158.845 119.594 161.365 120.401 163.802C121.524 167.201 122.581 170.409 121.769 175.36C121.494 177.015 120.938 178.323 120.06 179.362C118.453 181.268 116.01 181.949 113.836 182.367C100.761 184.858 87.7155 186.19 75.0464 186.327C74.8732 186.327 74.5327 186.339 74.0548 186.345C72.4182 186.381 69.0135 186.453 65.4774 186.453V186.459Z" fill="#DF423B"/>
<path d="M92.0755 129.349C92.0755 129.349 108.37 129.809 108.376 129.809C109.117 129.833 112.086 134.701 112.665 135.483C116.78 141.086 117.24 148.803 117.665 155.499C118.196 163.808 122.246 167.004 120.89 175.223C120.639 176.758 120.125 177.911 119.379 178.795C118.101 180.306 116.147 181.023 113.674 181.495C100.922 183.926 88.0197 185.294 75.04 185.437C74.2694 185.443 70.0225 185.562 65.4829 185.562C59.6232 185.562 53.2797 185.365 53.2558 184.481C53.1005 177.863 60.2205 159.949 60.9254 154.43C61.5227 149.741 62.0304 144.766 64.7721 140.752C66.6297 138.034 69.1863 135.836 72.0594 134.247C73.1286 133.656 75.2132 133.297 76.0853 132.509L92.0755 129.343M92.0755 127.557C91.956 127.557 91.8425 127.569 91.729 127.593L75.7388 130.759C75.4222 130.824 75.1296 130.968 74.8847 131.183C74.6457 131.398 73.708 131.714 73.1525 131.899C72.4715 132.126 71.7667 132.365 71.1873 132.682C67.9498 134.474 65.2201 136.917 63.2908 139.748C60.4475 143.911 59.8323 148.774 59.2409 153.474L59.1454 154.209C58.8826 156.282 57.5386 160.565 56.123 165.098C53.895 172.218 51.3624 180.288 51.4639 184.529C51.5177 186.769 54.4624 186.972 57.0548 187.145C59.1095 187.289 61.9468 187.36 65.4769 187.36C69.0071 187.36 72.4297 187.289 74.0663 187.253C74.5442 187.241 74.8847 187.235 75.0519 187.235C87.7748 187.097 100.874 185.759 113.997 183.263C116.327 182.821 118.949 182.08 120.735 179.96C121.72 178.789 122.347 177.337 122.646 175.521C123.494 170.355 122.353 166.89 121.248 163.539C120.46 161.156 119.648 158.689 119.439 155.392L119.427 155.213C118.985 148.272 118.483 140.405 114.092 134.426C113.991 134.289 113.722 133.877 113.435 133.441C110.479 128.919 109.678 128.059 108.412 128.023C108.328 128.023 92.1113 127.563 92.1113 127.563C92.0934 127.563 92.0754 127.563 92.0635 127.563L92.0755 127.557Z" fill="#231F20"/>
<path d="M112.271 139.617C127.688 140.573 129.229 126.817 129.229 126.817C103.246 129.857 81.9094 129.325 56.398 125.072C52.6946 124.457 49.0629 126.512 47.6891 130.006C44.9773 136.893 44.8578 150.954 58.6917 161.371C58.6917 161.371 62.2338 139.79 69.1567 136.153" fill="#DF423B"/>
<path d="M112.271 139.617C127.688 140.573 129.229 126.817 129.229 126.817C103.246 129.857 81.9094 129.325 56.398 125.072C52.6946 124.457 49.0629 126.512 47.6891 130.006C44.9773 136.893 44.8578 150.954 58.6917 161.371C58.6917 161.371 62.2338 139.79 69.1567 136.153" stroke="#231F20" stroke-width="2" stroke-linecap="round" stroke-linejoin="round"/>
<path d="M38.8885 130.687L58.8056 132.735L56.2673 157.423L36.3503 155.376C30.3847 154.762 26.034 149.421 26.6479 143.45L26.9625 140.39C27.5759 134.424 32.917 130.073 38.8885 130.687Z" fill="#DF423B" stroke="#231F20" stroke-width="2" stroke-linecap="round" stroke-linejoin="round"/>
<path d="M48.7044 131.021H37.6241V155.416H48.7044V131.021Z" fill="#181818"/>
<path d="M69.1631 136.146C78.8038 138.834 95.5645 139.796 95.5645 139.796L69.1631 136.146Z" fill="#DF423B"/>
<path d="M69.1631 136.146C78.8038 138.834 95.5645 139.796 95.5645 139.796" stroke="#231F20" stroke-width="2" stroke-linecap="round" stroke-linejoin="round"/>
<path d="M86.0907 150.285L95.5044 151.33L92.9957 148.684L100.492 150.321L98.1087 147.465C100.235 148.045 102.308 148.606 104.327 149.156C108.639 150.326 113.884 150.762 115.837 155.804C116.966 158.707 116.542 162.38 114.654 164.692C111.602 168.431 106.035 166.824 102.254 164.668L94.2142 160.612L96.4183 159.86L90.1465 156.294L95.0923 155.953L86.0847 150.285H86.0907Z" fill="#231F20"/>
<path d="M105.557 162.745C104.924 162.745 104.392 162.315 104.177 161.622C103.848 160.588 103.49 159.495 103.072 158.396C102.839 158.522 102.606 158.582 102.379 158.582C101.877 158.582 101.465 158.307 101.148 157.775C100.695 157.005 100.844 156.162 101.531 155.631C101.602 155.577 101.68 155.517 101.758 155.464C101.74 155.422 101.585 155.105 101.585 155.105C101.208 154.335 101.411 153.558 102.098 153.14C102.355 152.985 102.618 152.907 102.893 152.907C103.245 152.907 103.574 153.038 103.836 153.289C103.926 153.032 104.093 152.805 104.338 152.614C104.625 152.393 104.935 152.28 105.252 152.28C105.521 152.28 105.921 152.363 106.291 152.764C106.321 152.794 106.447 152.913 106.518 153.116C106.53 153.14 106.536 153.164 106.542 153.182C106.656 153.182 106.751 153.158 106.859 153.146C107.014 153.122 107.163 153.11 107.307 153.11C108.227 153.11 109.063 153.54 109.607 154.293C110.216 155.147 110.365 156.3 110.001 157.381C109.6 158.57 108.722 159.28 107.331 159.567C107.241 159.585 107.146 159.597 107.056 159.603C107.002 159.615 106.948 159.621 106.895 159.621C106.895 159.621 106.709 159.633 106.68 159.633C106.781 159.92 106.877 160.206 106.966 160.487C107.283 161.449 106.865 162.034 106.59 162.303C106.285 162.595 105.927 162.751 105.545 162.751L105.557 162.745Z" fill="white"/>
<path d="M105.265 153.17C105.39 153.17 105.521 153.23 105.647 153.367C105.665 153.385 105.689 153.403 105.701 153.433C105.892 153.952 106.167 154.078 106.513 154.078C106.668 154.078 106.835 154.054 107.015 154.03C107.122 154.012 107.224 154.006 107.325 154.006C108.771 154.006 109.697 155.517 109.165 157.094C108.825 158.11 108.054 158.51 107.164 158.689C107.068 158.707 106.967 158.707 106.871 158.719C106.871 158.719 106.871 158.725 106.871 158.731C106.74 158.731 106.614 158.749 106.483 158.749C106.453 158.749 106.423 158.749 106.394 158.749C105.952 158.725 105.76 158.498 105.748 158.002C105.742 157.614 105.88 157.47 106.334 157.441C106.883 157.405 107.409 157.333 107.833 156.903C108.114 156.622 108.191 156.079 108.006 155.679C107.875 155.404 107.588 155.237 107.289 155.237C107.218 155.237 107.146 155.248 107.074 155.266C106.877 155.326 106.776 155.41 106.889 155.679C107.039 156.025 106.997 156.336 106.71 156.569C106.585 156.67 106.471 156.724 106.364 156.724C106.202 156.724 106.065 156.61 105.94 156.371C105.76 156.037 105.677 155.894 105.533 155.894C105.432 155.894 105.294 155.971 105.073 156.103C104.996 156.15 104.924 156.21 104.84 156.24C104.518 156.371 104.53 156.592 104.667 156.909C105.205 158.181 105.695 159.466 106.119 160.774C106.226 161.108 106.232 161.419 105.969 161.67C105.832 161.801 105.683 161.867 105.545 161.867C105.318 161.867 105.121 161.694 105.02 161.371C104.608 160.075 104.183 158.785 103.676 157.518C103.586 157.291 103.491 157.19 103.377 157.19C103.299 157.19 103.204 157.238 103.096 157.321C102.995 157.405 102.881 157.47 102.768 157.542C102.612 157.644 102.487 157.697 102.374 157.697C102.2 157.697 102.063 157.578 101.92 157.333C101.699 156.957 101.746 156.604 102.081 156.348C102.236 156.222 102.403 156.103 102.583 156.025C102.881 155.894 102.881 155.69 102.732 155.416C102.613 155.189 102.505 154.95 102.397 154.717C102.23 154.376 102.272 154.096 102.577 153.91C102.69 153.845 102.798 153.809 102.899 153.809C103.072 153.809 103.234 153.904 103.365 154.108C103.532 154.37 103.67 154.651 103.813 154.932C103.891 155.087 103.98 155.171 104.094 155.171C104.154 155.171 104.213 155.147 104.285 155.105C104.351 155.063 104.422 155.033 104.488 154.998C105.055 154.723 105.061 154.717 104.769 154.108C104.613 153.785 104.637 153.528 104.894 153.337C105.02 153.241 105.139 153.188 105.265 153.188M105.265 151.378C104.906 151.378 104.369 151.467 103.807 151.892C103.723 151.957 103.64 152.029 103.568 152.101C103.359 152.035 103.132 151.999 102.905 151.999C102.475 151.999 102.039 152.124 101.645 152.363C100.653 152.967 100.277 154.108 100.671 155.201C99.9006 156.019 99.7752 157.184 100.384 158.217C101.024 159.304 101.914 159.465 102.385 159.465C102.427 159.465 102.475 159.465 102.517 159.465C102.81 160.29 103.078 161.108 103.323 161.885C103.658 162.948 104.536 163.629 105.557 163.629C106.167 163.629 106.758 163.378 107.224 162.93C107.552 162.607 108.263 161.735 107.875 160.344C109.386 159.943 110.39 159.041 110.861 157.65C111.321 156.294 111.13 154.836 110.348 153.755C109.637 152.764 108.538 152.196 107.325 152.196C107.23 152.196 107.128 152.196 107.033 152.208C106.997 152.166 106.967 152.136 106.943 152.113C106.489 151.635 105.898 151.372 105.277 151.372L105.265 151.378Z" fill="#231F20"/>
<path d="M97.0274 163.701C96.5794 163.701 96.1553 163.611 95.7611 163.438C95.104 163.151 94.3155 162.494 94.3155 161.019C94.3155 159.991 94.8114 159.179 95.7073 158.737C96 158.594 96.3106 158.492 96.6331 158.438C96.6092 158.217 96.5913 157.99 96.5734 157.775C96.4958 157.781 96.4121 157.793 96.3345 157.799C96.1135 157.823 95.8925 157.847 95.6715 157.877C95.5699 157.889 95.4744 157.895 95.3848 157.895C94.5724 157.895 93.9632 157.369 93.8437 156.551C93.8139 156.36 93.7242 155.774 94.1005 155.285C94.4768 154.801 95.0563 154.741 95.2474 154.723C95.4266 154.705 95.6058 154.693 95.785 154.681H95.8805C95.9223 154.669 95.9582 154.663 96 154.657L96.227 154.639C96.2151 154.52 96.2091 154.395 96.2031 154.275C96.1553 153.367 96.6511 152.764 97.5291 152.662C97.6008 152.656 97.6725 152.65 97.7441 152.65C98.5207 152.65 99.1001 153.134 99.2554 153.917C99.2852 154.06 99.3031 154.203 99.3211 154.341C99.4764 154.329 99.6377 154.317 99.7989 154.317C100.169 154.317 101.197 154.424 101.31 155.738C101.394 156.652 100.928 157.274 100.068 157.399C99.9124 157.423 99.7572 157.441 99.6019 157.459C99.6556 157.907 99.7093 158.349 99.7571 158.797C100.133 158.934 100.516 159.072 100.898 159.251C101.704 159.621 102.009 160.487 101.645 161.359C101.292 162.195 100.683 162.321 100.349 162.321C100.151 162.321 99.9543 162.279 99.7452 162.196C99.4406 162.859 98.897 163.318 98.1743 163.522C97.7621 163.635 97.3858 163.695 97.0274 163.695V163.701Z" fill="white"/>
<path d="M97.7322 153.558C98.0667 153.558 98.2937 153.744 98.3654 154.108C98.4132 154.353 98.437 154.61 98.443 154.86C98.455 155.171 98.5744 155.297 98.8134 155.297C98.8492 155.297 98.8851 155.297 98.9209 155.291C99.2136 155.255 99.5122 155.231 99.8109 155.219C99.8228 155.219 99.8347 155.219 99.8407 155.219C100.211 155.219 100.366 155.398 100.408 155.828C100.444 156.27 100.313 156.467 99.9303 156.527C99.6138 156.575 99.2852 156.605 98.9627 156.646C98.7118 156.676 98.6102 156.826 98.6461 157.1C98.7357 157.805 98.8134 158.516 98.897 159.221C98.9269 159.454 99.0821 159.52 99.2613 159.585C99.6854 159.741 100.11 159.89 100.522 160.075C100.892 160.248 100.994 160.613 100.82 161.025C100.701 161.306 100.557 161.437 100.354 161.437C100.253 161.437 100.139 161.407 100.002 161.341C99.9303 161.306 99.8527 161.27 99.781 161.24C99.554 161.138 99.4166 161.073 99.3211 161.073C99.1777 161.073 99.1359 161.222 99.0284 161.598C98.8611 162.178 98.4729 162.524 97.9473 162.667C97.6426 162.751 97.338 162.805 97.0334 162.805C96.7287 162.805 96.4301 162.751 96.1314 162.62C95.4684 162.327 95.2235 161.748 95.2235 161.019C95.2235 160.326 95.5281 159.83 96.1135 159.543C96.4539 159.376 96.8123 159.299 97.1767 159.293C97.4933 159.287 97.6307 159.149 97.5829 158.791C97.5172 158.283 97.4814 157.775 97.4336 157.268C97.4097 156.969 97.2902 156.826 97.0393 156.826C97.0095 156.826 96.9736 156.826 96.9378 156.832C96.4778 156.891 96.0179 156.927 95.552 156.987C95.4923 156.993 95.4385 156.999 95.3848 156.999C95.0144 156.999 94.7875 156.802 94.7277 156.413C94.6501 155.888 94.8114 155.667 95.337 155.613C95.5759 155.589 95.8208 155.577 96.0597 155.565C96.0597 155.565 96.0597 155.565 96.0597 155.559C96.3106 155.541 96.5675 155.518 96.8183 155.512C97.105 155.5 97.2066 155.344 97.1707 155.046C97.1349 154.777 97.111 154.508 97.0991 154.239C97.0752 153.797 97.2305 153.612 97.6307 153.564C97.6725 153.564 97.7083 153.558 97.7441 153.558M97.2544 160.517C97.2544 160.517 97.2245 160.517 97.2066 160.517C96.7228 160.571 96.4719 160.786 96.5197 161.108C96.5734 161.455 96.7884 161.515 97.0214 161.515C97.0811 161.515 97.1469 161.515 97.2066 161.509C97.6247 161.479 97.8457 161.228 97.8099 160.875C97.7741 160.559 97.6068 160.517 97.4276 160.517C97.3679 160.517 97.3081 160.517 97.2544 160.517ZM97.7322 151.766C97.6307 151.766 97.5291 151.766 97.4216 151.784C96.233 151.916 95.4505 152.698 95.3131 153.821C95.2593 153.821 95.1996 153.833 95.1458 153.839C94.3813 153.917 93.7899 154.221 93.3838 154.741C92.9776 155.261 92.8342 155.918 92.9477 156.688C93.0851 157.59 93.6226 158.283 94.3812 158.6C93.76 159.221 93.4196 160.063 93.4196 161.025C93.4196 162.53 94.1424 163.713 95.3967 164.262C95.9044 164.483 96.454 164.597 97.0214 164.597C97.4634 164.597 97.9174 164.531 98.4131 164.394C99.1419 164.191 99.7452 163.784 100.181 163.217C100.235 163.217 100.295 163.223 100.348 163.223C100.695 163.223 101.884 163.115 102.469 161.712C103.018 160.392 102.517 159.018 101.268 158.444C101.059 158.349 100.856 158.265 100.653 158.188C101.692 157.841 102.296 156.879 102.194 155.673C102.081 154.377 101.238 153.517 100.038 153.439C99.7034 152.429 98.8134 151.772 97.7322 151.772V151.766Z" fill="#231F20"/>
<path d="M112.319 161.538C111.883 161.538 111.471 161.329 111.082 160.923C110.366 160.164 109.918 159.161 109.709 157.865C109.667 157.608 109.649 157.339 109.631 157.076L109.607 156.772C109.511 156.049 109.499 155.224 109.559 154.227C109.637 153.05 110.372 152.632 110.975 152.632C111.232 152.632 111.501 152.704 111.763 152.841C112.641 153.301 112.576 154.221 112.552 154.573C112.54 154.753 112.522 154.932 112.504 155.105C112.474 155.374 112.444 155.631 112.45 155.876C112.45 156.216 112.462 156.616 112.522 157.022C112.641 156.993 112.743 156.981 112.809 156.981C113.03 156.981 113.239 157.046 113.442 157.172C114.105 157.584 114.427 158.48 114.194 159.256L114.147 159.412C114.039 159.77 113.92 160.176 113.705 160.564C113.269 161.371 112.707 161.538 112.313 161.538H112.319Z" fill="white"/>
<path d="M110.987 153.528C111.101 153.528 111.226 153.564 111.363 153.636C111.716 153.821 111.698 154.179 111.674 154.508C111.644 154.962 111.561 155.416 111.567 155.876C111.567 156.616 111.626 157.345 111.847 158.05C111.889 158.187 111.949 158.331 112.027 158.444C112.086 158.54 112.152 158.582 112.218 158.582C112.289 158.582 112.355 158.528 112.415 158.42C112.475 158.307 112.516 158.181 112.576 158.068C112.642 157.948 112.719 157.877 112.821 157.877C112.869 157.877 112.922 157.895 112.982 157.931C113.299 158.128 113.472 158.6 113.353 158.994C113.233 159.382 113.126 159.782 112.934 160.135C112.749 160.469 112.552 160.636 112.331 160.636C112.152 160.636 111.955 160.523 111.746 160.302C111.089 159.609 110.766 158.713 110.605 157.716C110.551 157.381 110.545 157.035 110.515 156.694C110.414 155.888 110.42 155.081 110.468 154.281C110.497 153.785 110.689 153.522 110.993 153.522M110.987 151.736C109.948 151.736 108.783 152.501 108.676 154.173C108.61 155.213 108.628 156.079 108.723 156.891C108.729 156.975 108.735 157.058 108.741 157.142C108.759 157.405 108.777 157.698 108.825 158.008C109.064 159.49 109.59 160.648 110.432 161.544C111.131 162.285 111.841 162.44 112.319 162.44C112.839 162.44 113.818 162.255 114.499 161.001C114.756 160.529 114.9 160.057 115.013 159.675L115.055 159.525C115.413 158.355 114.935 157.047 113.92 156.419C113.741 156.306 113.55 156.222 113.353 156.168C113.353 156.073 113.353 155.977 113.353 155.876C113.353 155.685 113.376 155.452 113.4 155.207C113.418 155.016 113.442 154.83 113.454 154.639C113.562 153.104 112.821 152.387 112.182 152.053C111.788 151.85 111.381 151.742 110.981 151.742L110.987 151.736Z" fill="#231F20"/>
<path d="M93.5565 163.928C93.455 163.928 93.3475 163.916 93.2399 163.898C92.8636 163.832 92.2185 163.563 92.0692 162.524C91.9318 161.58 91.8064 160.636 91.6809 159.71L91.5734 158.904C91.5734 158.874 91.5674 158.838 91.5674 158.803L91.5436 157.954C91.5077 156.802 91.4779 155.714 91.5555 154.591C91.663 153.128 92.7203 153.015 93.0428 153.015C93.1384 153.015 93.234 153.021 93.3415 153.038C94.3211 153.176 94.8408 153.887 94.7273 154.938C94.5959 156.234 94.6078 157.632 94.781 159.34C94.8706 160.218 94.9841 161.007 95.1394 161.747C95.217 162.112 95.3425 162.715 94.8885 163.282C94.5541 163.701 94.0821 163.933 93.5565 163.933V163.928Z" fill="white"/>
<path d="M93.0433 153.911C93.0971 153.911 93.1509 153.911 93.2166 153.923C93.7004 153.988 93.8975 154.263 93.8378 154.842C93.6825 156.366 93.7362 157.895 93.8915 159.424C93.9752 160.266 94.0946 161.096 94.2619 161.921C94.3156 162.189 94.3873 162.464 94.1902 162.715C94.017 162.93 93.8019 163.032 93.557 163.032C93.5033 163.032 93.4495 163.032 93.3957 163.02C93.0851 162.966 92.9956 162.679 92.9597 162.399C92.7865 161.174 92.6252 159.95 92.4639 158.785C92.4281 157.369 92.3564 156.007 92.452 154.657C92.4878 154.132 92.673 153.911 93.0433 153.911ZM93.0433 152.119C92.0279 152.119 90.7915 152.752 90.6601 154.526C90.5764 155.697 90.6123 156.861 90.6421 157.984C90.6481 158.265 90.66 158.54 90.666 158.827C90.666 158.892 90.672 158.958 90.6839 159.024L90.8094 159.961C90.9289 160.845 91.0543 161.747 91.1797 162.649C91.4246 164.358 92.6969 164.716 93.0852 164.782C93.2405 164.812 93.4017 164.824 93.557 164.824C94.3574 164.824 95.0742 164.471 95.5879 163.838C96.3047 162.942 96.1016 161.969 96.0239 161.598V161.562C95.8686 160.852 95.7611 160.099 95.6715 159.245C95.5043 157.596 95.4923 156.258 95.6178 155.022C95.7731 153.505 94.907 152.346 93.4674 152.143C93.3241 152.125 93.1807 152.113 93.0433 152.113V152.119Z" fill="#231F20"/>
<path d="M116.225 159.113C115.92 159.113 115.365 158.994 115.012 158.205C114.744 157.596 114.403 157.011 114.11 156.515C113.525 155.536 114.087 154.884 114.266 154.705C114.421 154.556 114.779 154.209 115.311 154.209C115.663 154.209 116.004 154.371 116.261 154.663C116.906 155.404 117.366 156.169 117.664 157.011C117.688 157.089 117.706 157.172 117.718 157.238C117.718 157.256 117.73 157.298 117.73 157.315C117.802 158.056 117.354 158.779 116.661 159.036C116.518 159.09 116.368 159.113 116.225 159.113Z" fill="white"/>
<path d="M115.311 155.105C115.401 155.105 115.49 155.147 115.586 155.255C116.105 155.846 116.535 156.515 116.816 157.309C116.828 157.345 116.834 157.387 116.84 157.405C116.876 157.745 116.661 158.08 116.356 158.193C116.308 158.211 116.267 158.217 116.225 158.217C116.04 158.217 115.92 158.044 115.837 157.841C115.562 157.214 115.227 156.628 114.881 156.049C114.738 155.81 114.666 155.553 114.887 155.344C115.018 155.219 115.162 155.099 115.311 155.099M115.311 153.313C114.427 153.313 113.842 153.875 113.65 154.054C113.053 154.627 112.611 155.738 113.346 156.969C113.698 157.56 113.973 158.056 114.2 158.564C114.773 159.866 115.813 160.009 116.231 160.009C116.482 160.009 116.733 159.961 116.978 159.878C118.047 159.484 118.74 158.373 118.626 157.232C118.626 157.178 118.614 157.13 118.602 157.076C118.584 156.981 118.56 156.861 118.513 156.718C118.178 155.768 117.664 154.902 116.942 154.078C116.512 153.588 115.938 153.319 115.323 153.319L115.311 153.313Z" fill="#231F20"/>
<path d="M102.259 143.279C102.026 143.279 101.799 143.189 101.632 143.022C101.447 142.842 101.351 142.598 101.363 142.341L101.979 127.945C101.997 127.491 102.355 127.121 102.815 127.091C102.815 127.091 109.983 126.607 110.001 126.607C110.246 126.607 110.479 126.709 110.652 126.888C110.837 127.079 110.926 127.348 110.891 127.611L109.141 142.084C109.087 142.508 108.74 142.842 108.31 142.872C108.31 142.872 102.277 143.279 102.259 143.279Z" fill="#DF423B"/>
<path d="M109.995 127.497L108.245 141.97L102.253 142.376L102.869 127.981L109.995 127.497ZM109.995 125.705C109.953 125.705 109.911 125.705 109.875 125.705L102.749 126.189C101.835 126.249 101.119 126.99 101.083 127.903L100.468 142.299C100.444 142.807 100.641 143.302 101.005 143.661C101.34 143.989 101.788 144.168 102.253 144.168C102.295 144.168 102.337 144.168 102.373 144.168L108.364 143.762C109.224 143.702 109.917 143.045 110.025 142.191L111.775 127.718C111.84 127.187 111.661 126.655 111.297 126.273C110.956 125.914 110.484 125.711 109.995 125.711V125.705Z" fill="#231F20"/>
<path d="M132.621 98.9158C132.125 98.9039 131.737 98.4917 131.749 97.9959C132.191 80.2676 118.847 65.5079 102.009 65.0898C101.764 65.0838 101.519 65.0778 101.274 65.0778C84.8299 65.0778 71.0976 79.1626 70.6675 96.4728C70.6556 96.9626 70.2554 97.3449 69.7716 97.3449C69.7656 97.3449 43.2268 96.6819 43.2268 96.6819C42.7788 96.6699 42.4085 96.3295 42.3607 95.8874C40.4553 78.8102 43.9137 65.1973 52.6465 55.4371C61.5943 45.432 76.121 39.9248 93.5448 39.9248C94.2377 39.9248 94.9366 39.9308 95.6354 39.9487C110.939 40.331 124.253 46.3579 133.129 56.9125C142.226 67.7359 145.75 82.0774 143.319 98.3842C143.253 98.8262 142.877 99.1488 142.435 99.1488C142.429 99.1488 132.627 98.9039 132.627 98.9039L132.621 98.9158Z" fill="#DF423B"/>
<path d="M93.5389 40.8266C94.2258 40.8266 94.9187 40.8326 95.6056 40.8505C125.143 41.5852 147.53 64.0264 142.429 98.2586L132.645 98.0137C133.099 79.7657 119.391 64.6177 102.027 64.1877C101.77 64.1817 101.519 64.1757 101.268 64.1757C84.2446 64.1757 70.2137 78.4635 69.7657 96.4428L43.2449 95.7798C38.7948 55.9268 64.808 40.8147 93.5389 40.8147M93.5389 39.0347C75.8524 39.0347 61.0927 44.6494 51.9716 54.8456C43.0597 64.8029 39.5235 78.6487 41.4648 95.9948C41.5664 96.8848 42.3071 97.5658 43.203 97.5896L69.7239 98.2527C69.7239 98.2527 69.7537 98.2527 69.7657 98.2527C70.2256 98.2527 70.6676 98.0735 71.0021 97.7569C71.3486 97.4284 71.5457 96.9803 71.5576 96.5025C71.9758 79.6701 85.3079 65.9796 101.268 65.9796C101.507 65.9796 101.746 65.9796 101.985 65.9856C118.334 66.3918 131.283 80.7453 130.853 97.9779C130.841 98.4558 131.021 98.9157 131.349 99.2562C131.678 99.5967 132.126 99.7997 132.603 99.8116L142.388 100.057C142.388 100.057 142.417 100.057 142.435 100.057C143.319 100.057 144.078 99.4114 144.209 98.5274C145.464 90.1291 145.141 82.1609 143.254 74.8498C141.456 67.8791 138.278 61.6491 133.816 56.3449C124.773 45.5872 111.225 39.4468 95.6594 39.0586C94.9545 39.0407 94.2437 39.0347 93.5449 39.0347H93.5389Z" fill="#231F20"/>
<path d="M100.988 68.7036C100.659 68.7036 100.336 68.7036 100.008 68.6916C78.6538 68.16 61.708 50.354 62.2396 28.9939C62.2456 28.755 62.3471 28.528 62.5203 28.3667C62.6876 28.2055 62.9086 28.1218 63.1356 28.1218C63.1415 28.1218 73.4213 28.3787 73.4213 28.3787C73.7439 28.3847 74.0306 28.5639 74.1859 28.8446L79.072 37.8163L84.4 29.1014C84.5613 28.8326 84.854 28.6714 85.1646 28.6714C85.1706 28.6714 95.1159 28.9163 95.1159 28.9163C95.4385 28.9222 95.7251 29.1015 95.8804 29.3822L100.767 38.3539L106.095 29.639C106.256 29.3702 106.549 29.2089 106.859 29.2089C106.865 29.2089 116.195 29.4419 116.195 29.4419C116.518 29.4479 116.804 29.6271 116.96 29.9078L121.846 38.8795L127.168 30.1647C127.329 29.8959 127.622 29.7346 127.932 29.7346C127.938 29.7346 138.839 30.0034 138.839 30.0034C139.078 30.0094 139.305 30.1109 139.467 30.2841C139.628 30.4574 139.718 30.6843 139.712 30.9232C139.461 41.0955 135.303 50.6108 128.01 57.7129C120.735 64.8031 111.136 68.7036 100.994 68.7036H100.988Z" fill="#DF423B"/>
<path d="M63.1297 29.0177L73.3976 29.2745L79.0243 39.6081L85.1588 29.5672L95.0862 29.8121L100.713 40.1457L106.847 30.1048L116.16 30.3377L121.786 40.6713L127.921 30.6304L138.804 30.8992C138.29 51.4708 121.446 67.8074 100.988 67.8074C100.665 67.8074 100.349 67.8074 100.026 67.7955C79.1318 67.2758 62.61 49.9118 63.1297 29.0177ZM63.1297 27.2257C62.1621 27.2257 61.3617 27.9963 61.3378 28.9759C60.7942 50.8257 78.1284 69.0439 99.9782 69.5934C100.313 69.5994 100.647 69.6054 100.982 69.6054C111.363 69.6054 121.177 65.6093 128.626 58.3579C136.086 51.0945 140.333 41.3583 140.596 30.953C140.62 29.9614 139.837 29.1431 138.852 29.1192L127.968 28.8504C127.968 28.8504 127.939 28.8504 127.927 28.8504C127.305 28.8504 126.726 29.173 126.398 29.7106L121.882 37.0994L117.742 29.4896C117.438 28.9281 116.852 28.5697 116.213 28.5577L106.901 28.3248C106.901 28.3248 106.871 28.3248 106.859 28.3248C106.238 28.3248 105.659 28.6473 105.33 29.1849L100.814 36.5737L96.675 28.9639C96.3704 28.4024 95.785 28.0441 95.1459 28.0321L85.2185 27.7872C85.2185 27.7872 85.1886 27.7872 85.1707 27.7872C84.5495 27.7872 83.9701 28.1097 83.6416 28.6473L79.1259 36.0361L74.9864 28.4263C74.6818 27.8648 74.0964 27.5065 73.4573 27.4945L63.1894 27.2377C63.1894 27.2377 63.1596 27.2377 63.1417 27.2377L63.1297 27.2257Z" fill="#231F20"/>
<path d="M117.092 114.159C114.738 114.099 112.552 113.132 110.933 111.423C109.315 109.721 108.454 107.487 108.508 105.134C108.628 100.397 112.576 96.5443 117.307 96.5443H117.528C119.881 96.604 122.067 97.5776 123.686 99.28C125.305 100.982 126.171 103.216 126.111 105.57C125.992 110.306 122.043 114.153 117.313 114.153H117.092V114.159Z" fill="white"/>
<path d="M117.307 97.4521C117.373 97.4521 117.438 97.4521 117.51 97.4521C121.877 97.5596 125.329 101.191 125.221 105.558C125.114 109.858 121.596 113.269 117.319 113.269C117.253 113.269 117.188 113.269 117.116 113.269C112.75 113.162 109.297 109.53 109.405 105.163C109.512 100.863 113.03 97.4521 117.307 97.4521ZM117.307 95.6602C112.003 95.6602 107.744 99.8175 107.613 105.122C107.547 107.714 108.497 110.175 110.283 112.05C112.069 113.926 114.482 114.995 117.068 115.061C117.152 115.061 117.229 115.061 117.313 115.061C122.617 115.061 126.876 110.904 127.007 105.6C127.139 100.254 122.898 95.7916 117.552 95.6602C117.468 95.6602 117.391 95.6602 117.307 95.6602Z" fill="#221F1F"/>
<path d="M116.171 109.148C114.068 109.094 112.402 107.344 112.456 105.241C112.509 103.157 114.182 101.52 116.266 101.52H116.362C118.465 101.574 120.131 103.324 120.077 105.426C120.024 107.511 118.351 109.148 116.266 109.148H116.171Z" fill="#231F20"/>
<path d="M116.261 102.416C116.261 102.416 116.309 102.416 116.333 102.416C117.946 102.458 119.218 103.796 119.176 105.402C119.134 106.985 117.838 108.246 116.261 108.246C116.237 108.246 116.213 108.246 116.19 108.246C114.577 108.204 113.305 106.866 113.346 105.259C113.388 103.676 114.684 102.416 116.261 102.416ZM116.261 100.624C113.687 100.624 111.62 102.643 111.554 105.217C111.489 107.816 113.549 109.978 116.142 110.044H116.261C118.836 110.044 120.902 108.031 120.968 105.456C120.998 104.196 120.538 103.007 119.672 102.093C118.806 101.179 117.635 100.666 116.375 100.63H116.255L116.261 100.624Z" fill="#231F20"/>
<path d="M80.6483 113.335C78.2949 113.275 76.1087 112.307 74.49 110.599C72.8713 108.897 72.0111 106.663 72.0649 104.309C72.1843 99.4949 76.049 95.7258 80.8633 95.7258H81.0843C83.4378 95.7856 85.6239 96.7592 87.2427 98.4615C88.8614 100.164 89.7215 102.398 89.6678 104.751C89.5483 109.566 85.6837 113.341 80.8693 113.341H80.6483V113.335Z" fill="white"/>
<path d="M80.8638 96.6222C80.9295 96.6222 80.9952 96.6222 81.0669 96.6222C85.4333 96.7297 88.8857 100.361 88.7782 104.728C88.6707 109.028 85.1525 112.439 80.8757 112.439C80.81 112.439 80.7443 112.439 80.6726 112.439C76.3062 112.332 72.8538 108.7 72.9613 104.334C73.0688 100.033 76.587 96.6222 80.8638 96.6222ZM80.8638 94.8302C75.5596 94.8302 71.3007 98.9875 71.1693 104.292C71.1036 106.884 72.0533 109.345 73.8393 111.221C75.6253 113.096 78.0384 114.165 80.6248 114.231C80.7085 114.231 80.7861 114.231 80.8698 114.231C86.1739 114.231 90.4328 110.074 90.5642 104.77C90.6299 102.177 89.6802 99.7162 87.8942 97.8406C86.1082 95.9651 83.695 94.8959 81.1087 94.8302C81.025 94.8302 80.9474 94.8302 80.8638 94.8302Z" fill="#221F1F"/>
<path d="M81.8201 108.371C79.7175 108.317 78.051 106.567 78.1048 104.465C78.1585 102.38 79.831 100.743 81.9157 100.743H82.0112C84.1138 100.797 85.7803 102.547 85.7265 104.65C85.6728 106.734 84.0003 108.371 81.9157 108.371H81.8201Z" fill="#231F20"/>
<path d="M81.9151 101.639C81.9151 101.639 81.9629 101.639 81.9868 101.639C83.5996 101.681 84.8719 103.019 84.83 104.626C84.7882 106.215 83.4921 107.469 81.9151 107.469C81.8912 107.469 81.8674 107.469 81.8435 107.469C80.2307 107.427 78.9584 106.089 79.0002 104.483C79.042 102.894 80.3382 101.639 81.9151 101.639ZM81.9151 99.8475C79.3407 99.8475 77.274 101.866 77.2083 104.441C77.1784 105.701 77.6383 106.89 78.5044 107.804C79.3706 108.718 80.5413 109.231 81.8016 109.267H81.9211C84.4956 109.267 86.5623 107.254 86.628 104.68C86.6937 102.081 84.6329 99.9192 82.0406 99.8535H81.9211L81.9151 99.8475Z" fill="#231F20"/>
<path d="M90.7792 119.087C90.7792 119.087 99.727 122.145 106.184 117.289" stroke="#231F20" stroke-width="2" stroke-linecap="round" stroke-linejoin="round"/>
<path d="M124.779 122.689C127.092 122.689 128.966 120.814 128.966 118.502C128.966 116.189 127.092 114.315 124.779 114.315C122.466 114.315 120.592 116.189 120.592 118.502C120.592 120.814 122.466 122.689 124.779 122.689Z" fill="#EB6563"/>
<path d="M64.9754 118.502C67.2879 118.502 69.1626 116.627 69.1626 114.315C69.1626 112.002 67.2879 110.127 64.9754 110.127C62.6629 110.127 60.7882 112.002 60.7882 114.315C60.7882 116.627 62.6629 118.502 64.9754 118.502Z" fill="#EB6563"/>
<path d="M109.529 99.7521C109.254 99.7521 108.986 99.6983 108.729 99.5968L107.94 99.2802C107.104 98.9457 106.555 98.1154 106.572 97.2135C106.596 96.216 107.295 95.3737 108.263 95.1527L109.822 94.8003L122.76 90.404C122.987 90.3264 123.22 90.2906 123.459 90.2906C124.438 90.2906 125.298 90.9536 125.549 91.8973L125.597 92.0766C125.89 93.1637 125.286 94.3045 124.229 94.6749L110.252 99.6207C110.019 99.7043 109.78 99.7461 109.529 99.7461V99.7521Z" fill="#DF423B"/>
<path d="M123.459 91.1864C124.014 91.1864 124.534 91.5567 124.683 92.1301L124.731 92.3093C124.904 92.9484 124.552 93.6114 123.931 93.8324L109.954 98.7782C109.816 98.826 109.673 98.8499 109.529 98.8499C109.368 98.8499 109.213 98.82 109.058 98.7603L108.269 98.4437C107.773 98.2466 107.457 97.7628 107.469 97.2312C107.481 96.6518 107.893 96.15 108.46 96.0246L110.019 95.6722C110.061 95.6603 110.109 95.6483 110.151 95.6363L123.053 91.2521C123.19 91.2043 123.327 91.1864 123.459 91.1864ZM123.459 89.3944C123.124 89.3944 122.79 89.4481 122.473 89.5556L109.601 93.934L108.066 94.2804C106.692 94.591 105.713 95.7857 105.677 97.1893C105.647 98.4676 106.417 99.6384 107.606 100.11L108.401 100.427C108.765 100.57 109.141 100.642 109.535 100.642C109.882 100.642 110.228 100.582 110.557 100.469L124.534 95.5229C126.027 94.9913 126.882 93.3785 126.469 91.8434L126.422 91.6642C126.063 90.3262 124.851 89.3944 123.465 89.3944H123.459Z" fill="#231F20"/>
<path d="M89.0289 99.2381C88.7482 99.2381 88.4674 99.1843 88.2046 99.0768L74.4902 93.4441C73.4509 93.02 72.9073 91.8492 73.2538 90.78L73.3075 90.6008C73.6002 89.6989 74.4245 89.0956 75.3683 89.0956C75.643 89.0956 75.9118 89.1494 76.1627 89.251L88.8318 94.2743L90.4087 94.7163C91.3644 94.9851 92.0155 95.8632 91.9916 96.8548C91.9677 97.7567 91.3823 98.5571 90.5282 98.8498L89.7218 99.1245C89.4948 99.2022 89.2619 99.2381 89.0229 99.2381H89.0289Z" fill="#DF423B"/>
<path d="M75.3746 89.992C75.5299 89.992 75.6912 90.0218 75.8406 90.0816L88.5096 95.105C88.5514 95.1229 88.5933 95.1349 88.6351 95.1469L90.1762 95.5769C90.7376 95.7322 91.1199 96.2519 91.108 96.8313C91.096 97.3629 90.7496 97.8288 90.2478 98.002L89.4414 98.2768C89.31 98.3246 89.1726 98.3425 89.0293 98.3425C88.868 98.3425 88.7008 98.3126 88.5455 98.2469L74.8311 92.6142C74.2159 92.3633 73.8993 91.6824 74.1024 91.0492L74.1621 90.8701C74.3353 90.3265 74.837 89.986 75.3687 89.986M75.3746 88.2001C74.0367 88.2001 72.8659 89.0542 72.4597 90.3265L72.4 90.5057C71.9162 92.0169 72.6867 93.6714 74.1501 94.2747L87.8646 99.9075C88.2349 100.063 88.6291 100.134 89.0293 100.134C89.3638 100.134 89.6983 100.081 90.0209 99.9672L90.8272 99.6924C92.0338 99.2803 92.8701 98.1453 92.8999 96.8731C92.9358 95.4694 92.0159 94.227 90.66 93.8447L89.1488 93.4266L76.5096 88.4151C76.1452 88.2717 75.7689 88.2001 75.3806 88.2001H75.3746Z" fill="#231F20"/>
<path d="M67.3174 192.796L99.0886 211.235" stroke="white" stroke-width="2" stroke-linecap="round" stroke-linejoin="round"/>
<path d="M56.7202 174.47C56.4813 174.47 56.2543 174.375 56.087 174.207C55.9198 174.04 55.8242 173.813 55.8242 173.574V134.241C55.8242 133.745 56.2244 133.345 56.7202 133.345H71.4918C71.9876 133.345 72.3878 133.745 72.3878 134.241V173.574C72.3878 174.07 71.9876 174.47 71.4918 174.47H56.7202Z" fill="#231F20"/>
<path d="M71.4923 134.241V173.574H56.7207V134.241H71.4923ZM71.4923 132.449H56.7207C55.7291 132.449 54.9287 133.249 54.9287 134.241V173.574C54.9287 174.566 55.7291 175.366 56.7207 175.366H71.4923C71.9701 175.366 72.4241 175.175 72.7586 174.841C73.0931 174.506 73.2842 174.046 73.2842 173.574V134.241C73.2842 133.249 72.4838 132.449 71.4923 132.449Z" fill="#231F20"/>
<path d="M64.1034 135.86C55.3587 135.86 38.825 134.665 38.825 130.155V125.771C38.825 125.275 39.2252 124.875 39.7209 124.875H54.0565C57.2343 124.594 60.6151 124.451 64.1094 124.451C67.6037 124.451 70.9845 124.594 74.1622 124.875H88.4978C88.9936 124.875 89.3938 125.275 89.3938 125.771V130.155C89.3938 134.665 72.8601 135.86 64.1154 135.86H64.1034Z" fill="#E1D6B8"/>
<path d="M64.1033 125.347C67.6752 125.347 71.062 125.502 74.1143 125.771H88.4857V130.155C88.4857 132.813 77.5668 134.964 64.1033 134.964C50.6397 134.964 39.7208 132.813 39.7208 130.155V125.771H54.0922C57.1505 125.502 60.5373 125.347 64.1033 125.347ZM64.1033 123.555C60.603 123.555 57.2042 123.698 54.0146 123.979H39.7208C38.7292 123.979 37.9288 124.779 37.9288 125.771V130.155C37.9288 132.55 40.5749 134.139 46.5183 135.316C51.2371 136.248 57.479 136.755 64.1092 136.755C70.7395 136.755 76.9814 136.242 81.7002 135.316C87.6376 134.145 90.2896 132.556 90.2896 130.155V125.771C90.2896 124.779 89.4892 123.979 88.4977 123.979H74.2039C71.0082 123.698 67.6155 123.555 64.1152 123.555H64.1033Z" fill="#231F20"/>
<path d="M64.1032 130.579C77.5692 130.579 88.4856 128.427 88.4856 125.771C88.4856 123.115 77.5692 120.963 64.1032 120.963C50.6371 120.963 39.7207 123.115 39.7207 125.771C39.7207 128.427 50.6371 130.579 64.1032 130.579Z" fill="#DF423B" stroke="#231F20" stroke-width="2" stroke-linecap="round" stroke-linejoin="round"/>
<path d="M55.8667 127.276C55.3709 127.276 54.9707 126.876 54.9707 126.38V10.5367C54.9707 8.48193 55.6457 6.43907 56.8702 4.79048C58.7099 2.31759 61.5292 0.895996 64.6114 0.895996C67.6935 0.895996 70.5129 2.31759 72.3526 4.79048L74.0789 7.11405C74.1924 7.26935 74.258 7.45453 74.258 7.64567V126.38C74.258 126.876 73.8578 127.276 73.3621 127.276H55.8726H55.8667Z" fill="white"/>
<path d="M64.6109 1.79195C67.245 1.79195 69.8852 2.96865 71.6293 5.32208L73.3556 7.64565V126.38H55.8662V10.5367C55.8662 8.6611 56.4694 6.82731 57.5924 5.32208C59.3425 2.96865 61.9767 1.79195 64.6109 1.79195ZM64.6109 0C61.242 0 58.1599 1.55302 56.1529 4.25289C54.8149 6.05679 54.0742 8.29076 54.0742 10.5367V126.38C54.0742 126.858 54.2654 127.312 54.5999 127.647C54.9344 127.981 55.3943 128.172 55.8662 128.172H73.3556C74.3471 128.172 75.1475 127.372 75.1475 126.38V7.64565C75.1475 7.26336 75.0221 6.88707 74.7951 6.57646L73.0689 4.25289C71.0619 1.54705 67.9797 0 64.6109 0Z" fill="#231F20"/>
<path d="M70.5723 144.52L75.751 146.175C87.2553 149.855 99.8049 148.182 109.947 141.629L116.004 137.717C122.784 136.702 129.097 141.373 130.113 148.152C131.128 154.932 113.645 166.167 113.645 166.167C103.502 172.726 90.9587 174.398 79.4544 170.731L74.2517 169.07L70.5723 144.526V144.52Z" fill="#DF423B" stroke="#231F20" stroke-width="2" stroke-linecap="round" stroke-linejoin="round"/>
<path d="M62.2275 134.402H66.3012C71.2231 134.402 75.2191 138.398 75.2191 143.32V147.394C75.2191 152.316 71.2231 156.312 66.3012 156.312H62.2275C57.3056 156.312 53.3096 152.316 53.3096 147.394V143.32C53.3096 138.398 57.3056 134.402 62.2275 134.402Z" fill="#FFF5E5"/>
<path d="M66.3017 135.298C70.7338 135.298 74.3236 138.888 74.3236 143.32V147.394C74.3236 151.826 70.7338 155.416 66.3017 155.416H62.228C57.7959 155.416 54.206 151.826 54.206 147.394V143.32C54.206 138.888 57.7959 135.298 62.228 135.298H66.3017ZM66.3017 133.506H62.228C56.8163 133.506 52.4141 137.909 52.4141 143.32V147.394C52.4141 152.806 56.8163 157.208 62.228 157.208H66.3017C71.7134 157.208 76.1156 152.806 76.1156 147.394V143.32C76.1156 137.909 71.7134 133.506 66.3017 133.506Z" fill="#221F1F"/>
<path d="M66.3012 155.918H62.2275C57.3023 155.918 53.3096 159.91 53.3096 164.836V168.909C53.3096 173.835 57.3023 177.827 62.2275 177.827H66.3012C71.2264 177.827 75.2191 173.835 75.2191 168.909V164.836C75.2191 159.91 71.2264 155.918 66.3012 155.918Z" fill="#FFF5E5"/>
<path d="M66.3017 156.814C70.7338 156.814 74.3236 160.404 74.3236 164.836V168.909C74.3236 173.341 70.7338 176.931 66.3017 176.931H62.228C57.7959 176.931 54.206 173.341 54.206 168.909V164.836C54.206 160.404 57.7959 156.814 62.228 156.814H66.3017ZM66.3017 155.022H62.228C56.8163 155.022 52.4141 159.424 52.4141 164.836V168.909C52.4141 174.321 56.8163 178.723 62.228 178.723H66.3017C71.7134 178.723 76.1156 174.321 76.1156 168.909V164.836C76.1156 159.424 71.7134 155.022 66.3017 155.022Z" fill="#221F1F"/>
<path d="M64.1036 134.94C68.214 134.94 71.5462 131.608 71.5462 127.497C71.5462 123.387 68.214 120.055 64.1036 120.055C59.9932 120.055 56.661 123.387 56.661 127.497C56.661 131.608 59.9932 134.94 64.1036 134.94Z" fill="white" stroke="#221F1F" stroke-width="2" stroke-linecap="round" stroke-linejoin="round"/>
<path d="M64.1032 131.016C66.0462 131.016 67.6214 129.44 67.6214 127.497C67.6214 125.554 66.0462 123.979 64.1032 123.979C62.1601 123.979 60.585 125.554 60.585 127.497C60.585 129.44 62.1601 131.016 64.1032 131.016Z" fill="#DF423B" stroke="#231F20" stroke-width="2" stroke-linecap="round" stroke-linejoin="round"/>
<path d="M106.124 170.731L93.3595 172.595V147.74L106.124 143.81V170.731Z" fill="#181818"/>
</svg>
