<svg width="263" height="283" viewBox="0 0 263 283" fill="none" xmlns="http://www.w3.org/2000/svg">
<path d="M130.216 97.5372C114.953 88.8706 97.04 83.7231 79.7414 86.6971C66.4448 88.981 54.3765 95.8467 41.3284 99.2554C28.2733 102.671 12.4099 101.657 3.9641 91.1339C-2.99124 104.769 2.77729 123.454 16.2188 130.789C27.6661 137.041 42.5841 135.495 52.9965 143.347C65.5823 152.835 67.0176 172.604 80.0174 181.512C91.2785 189.226 106.417 185.755 119.666 182.45C132.914 179.145 148.646 176.875 158.727 186.087C156.782 184.306 163.909 160.391 164.606 156.947C166.062 149.716 170.54 139.042 169.367 131.631C167.29 118.479 140.911 103.616 130.216 97.5441V97.5372Z" fill="#DE423B" stroke="#231F20" stroke-width="2" stroke-linecap="round" stroke-linejoin="round"/>
<path opacity="0.24" d="M130.216 97.5372C114.953 88.8706 97.04 83.7231 79.7414 86.6971C66.4448 88.981 54.3765 95.8467 41.3284 99.2554C28.2733 102.671 12.4099 101.657 3.9641 91.1339C-2.99124 104.769 2.77729 123.454 16.2188 130.789C27.6661 137.041 42.5841 135.495 52.9965 143.347C65.5823 152.835 67.0176 172.604 80.0174 181.512C91.2785 189.226 106.417 185.755 119.666 182.45C132.914 179.145 148.646 176.875 158.727 186.087C156.782 184.306 163.909 160.391 164.606 156.947C166.062 149.716 170.54 139.042 169.367 131.631C167.29 118.479 140.911 103.616 130.216 97.5441V97.5372Z" fill="#231F20"/>
<path d="M4.86168 97.1232C4.44767 95.2394 4.24068 93.3282 4.19238 91.4099C12.6934 101.67 28.3912 102.636 41.329 99.2554C54.384 95.8398 66.4523 88.981 79.742 86.6971C97.0406 83.7231 114.953 88.8706 130.217 97.5372C140.912 103.609 167.284 118.472 169.368 131.624C169.672 133.535 169.596 135.661 169.292 137.889C167.546 140.408 165.228 142.464 162.392 143.575C154.898 146.508 146.522 142.098 140.567 136.689C133.184 129.982 126.608 121.812 118.355 116.133C108.302 109.219 96.2609 104.499 84.0684 103.492C77.0717 102.912 69.9576 103.589 63.2645 105.741C56.6127 107.88 50.4855 111.365 44.0062 113.994C37.5339 116.623 30.3923 118.403 23.5749 116.892C14.2183 114.822 6.91792 106.48 4.86168 97.1232Z" fill="#DE423B" stroke="#231F20" stroke-width="2" stroke-linecap="round" stroke-linejoin="round"/>
<path d="M130.015 166.325L128.773 183.892L179.262 181.747L178.413 167.822L130.015 166.325Z" fill="#DE423B" stroke="#231F20" stroke-width="2" stroke-linecap="round" stroke-linejoin="round"/>
<path d="M169.341 141.891C169.223 141.891 169.099 141.871 168.982 141.829L146.639 133.618C146.101 133.418 145.825 132.824 146.025 132.286L157.155 101.988C157.252 101.732 157.445 101.519 157.693 101.408C157.831 101.346 157.976 101.312 158.128 101.312C158.245 101.312 158.369 101.332 158.487 101.374L180.829 109.585C181.085 109.681 181.299 109.875 181.409 110.123C181.519 110.371 181.533 110.654 181.443 110.916L170.314 141.215C170.162 141.636 169.762 141.891 169.341 141.891Z" fill="#FFF4E4"/>
<path d="M158.121 102.353L180.463 110.565L169.333 140.863L146.991 132.652L158.121 102.353ZM158.121 100.283C157.279 100.283 156.485 100.801 156.175 101.643L145.045 131.941C144.859 132.459 144.879 133.025 145.107 133.521C145.335 134.018 145.756 134.405 146.273 134.598L168.616 142.809C168.843 142.892 169.085 142.933 169.326 142.933C169.623 142.933 169.92 142.871 170.196 142.74C170.693 142.512 171.079 142.091 171.272 141.574L182.402 111.275C182.796 110.199 182.243 109.012 181.174 108.619L158.831 100.408C158.597 100.318 158.355 100.283 158.121 100.283Z" fill="#221F1F"/>
<path d="M147.073 108.757C146.742 108.757 146.424 108.598 146.231 108.322L118.285 68.9913C116.912 67.0524 116.436 64.6166 116.981 62.3051L130.319 5.87572C130.409 5.48931 130.713 5.1926 131.092 5.1029C131.168 5.0822 131.244 5.07532 131.327 5.07532C131.63 5.07532 131.927 5.21331 132.127 5.45482L165.006 45.6964C165.22 45.9586 165.289 46.3036 165.2 46.6279L148.066 107.991C147.956 108.377 147.639 108.66 147.245 108.729C147.183 108.743 147.128 108.743 147.066 108.743L147.073 108.757Z" fill="#DE423B"/>
<path d="M131.326 6.11728L164.205 46.3589L147.072 107.722L119.126 68.391C117.926 66.6936 117.505 64.5683 117.988 62.5466L131.326 6.11728ZM131.326 4.04724C131.174 4.04724 131.015 4.06795 130.864 4.10245C130.098 4.28186 129.497 4.87526 129.311 5.64117L115.973 62.0705C115.359 64.6718 115.89 67.4112 117.443 69.5917L145.388 108.922C145.782 109.474 146.41 109.792 147.079 109.792C147.196 109.792 147.313 109.785 147.438 109.764C148.224 109.626 148.859 109.054 149.073 108.281L166.206 46.9178C166.385 46.2692 166.241 45.5723 165.813 45.0548L132.934 4.81315C132.533 4.32324 131.947 4.05415 131.333 4.05415L131.326 4.04724Z" fill="#231F20"/>
<path d="M237.734 68.6117C237.638 68.6117 237.541 68.5979 237.444 68.5703L163.917 47.3524C163.716 47.2972 163.537 47.173 163.399 47.0143L130.52 6.7727C130.237 6.42769 130.209 5.93777 130.451 5.55826C130.644 5.25466 130.975 5.08215 131.32 5.08215C131.403 5.08215 131.493 5.09595 131.583 5.11665L210.782 25.6653C211.031 25.7274 211.245 25.8792 211.383 26.0931L238.59 67.004C238.831 67.3628 238.818 67.8389 238.562 68.1908C238.362 68.4599 238.052 68.6117 237.727 68.6117H237.734Z" fill="#DE423B"/>
<path d="M131.327 6.11728L210.527 26.6659L237.734 67.5768L164.199 46.3589L131.32 6.11728M131.327 4.04724C130.63 4.04724 129.968 4.39915 129.581 4.99946C129.098 5.75158 129.154 6.73137 129.719 7.42828L162.599 47.6699C162.868 47.9942 163.226 48.2357 163.627 48.3461L237.161 69.5641C237.355 69.6193 237.541 69.6469 237.734 69.6469C238.383 69.6469 239.011 69.3432 239.404 68.7981C239.915 68.0943 239.942 67.149 239.459 66.4314L212.252 25.5205C211.969 25.0996 211.541 24.7891 211.051 24.6649L131.851 4.11623C131.679 4.07482 131.506 4.04724 131.334 4.04724H131.327Z" fill="#231F20"/>
<path d="M238.071 82.8927C240.11 74.6309 236.729 66.6916 230.521 65.1597C224.312 63.6279 217.627 69.0836 215.588 77.3455C213.55 85.6073 216.93 93.5467 223.139 95.0786C229.347 96.6104 236.033 91.1546 238.071 82.8927Z" fill="#231F20"/>
<path d="M77.1049 143.396C77.0359 143.396 76.9669 143.396 76.8979 143.375C76.6219 143.32 76.3735 143.147 76.2286 142.906L62.4007 120.694C62.1109 120.225 62.2351 119.604 62.6974 119.293C62.7595 119.252 64.4018 118.134 76.3597 110.275C81.452 106.928 89.7805 105.231 101.104 105.231C109.929 105.231 117.436 106.314 117.505 106.328C117.602 106.342 117.698 106.369 117.788 106.411C123.626 109.116 138.778 114.705 138.93 114.76C139.344 114.912 139.62 115.312 139.606 115.754L139.11 136.468C139.096 136.896 138.827 137.275 138.426 137.42C138.309 137.461 138.192 137.482 138.075 137.482C137.778 137.482 137.488 137.358 137.288 137.123C135.19 134.694 115.221 131.21 103.374 131.21C100.42 131.21 98.9369 131.444 98.2193 131.645C91.7125 133.432 77.8432 143.12 77.7052 143.216C77.5327 143.34 77.3188 143.402 77.1118 143.402L77.1049 143.396Z" fill="#FFF4E4"/>
<path d="M101.09 106.259C109.943 106.259 117.347 107.342 117.347 107.342C123.295 110.095 138.565 115.726 138.565 115.726L138.068 136.44C135.46 133.411 114.435 130.168 103.367 130.168C101.021 130.168 99.1234 130.313 97.9366 130.637C91.1744 132.493 77.1051 142.361 77.1051 142.361L63.2772 120.149C63.2772 120.149 64.8366 119.086 76.9188 111.137C82.8253 107.253 92.6235 106.259 101.09 106.259ZM101.097 104.189C89.5668 104.189 81.0519 105.942 75.7871 109.405C63.8223 117.272 62.1732 118.389 62.1111 118.438C61.1934 119.066 60.9381 120.301 61.5246 121.239L75.3524 143.451C75.656 143.934 76.1391 144.272 76.698 144.382C76.836 144.41 76.974 144.424 77.112 144.424C77.5329 144.424 77.9469 144.293 78.2988 144.051C78.4368 143.954 92.1543 134.37 98.4955 132.631C99.0337 132.486 100.386 132.238 103.374 132.238C108.563 132.238 116.408 132.997 123.364 134.177C132.486 135.723 135.956 137.22 136.515 137.8C136.915 138.262 137.488 138.517 138.075 138.517C138.309 138.517 138.544 138.476 138.779 138.393C139.586 138.103 140.124 137.344 140.145 136.489L140.642 115.774C140.662 114.891 140.117 114.091 139.289 113.78C139.137 113.725 124.026 108.15 118.223 105.459C118.044 105.376 117.85 105.321 117.65 105.286C117.34 105.238 109.998 104.182 101.097 104.182V104.189Z" fill="#221F1F"/>
<path d="M128.153 194.795C128.153 194.795 113.055 231.358 106.245 233.746C99.4274 236.133 57.8817 241.233 43.3086 240.225L44.7438 256.261C44.7438 256.261 117.506 265.293 121.584 263.272C125.662 261.25 167.884 205.352 167.884 205.352L128.153 194.795Z" fill="#231F20" stroke="#231F20" stroke-width="2" stroke-miterlimit="10"/>
<path d="M51.1128 239.259C51.1128 239.259 40.3762 238.742 38.3061 240.053C36.2361 241.371 19.2549 268.509 20.6211 270.399C21.9873 272.29 26.3206 277.072 33.1103 271.483C39.9001 265.894 54.1971 255.502 54.1971 255.502L86.8762 263.568L69.8259 238.749L51.1128 239.252V239.259Z" fill="#DE423B" stroke="#231F20" stroke-width="2" stroke-linecap="round" stroke-linejoin="round"/>
<path d="M211.355 160.653C210.182 160.653 209.064 160.57 208.029 160.404C198.355 158.852 178.137 152.787 177.282 152.524C176.868 152.4 176.578 152.035 176.55 151.6C176.164 145.631 175.198 125.973 179.014 123.516C179.172 123.413 179.359 123.357 179.552 123.351H179.655C181.16 123.351 194.518 123.716 204.965 136.413L221.325 137.71C221.657 137.737 221.953 137.917 222.126 138.2L231.765 153.787C231.917 154.035 231.959 154.332 231.883 154.608C231.807 154.884 231.613 155.119 231.358 155.25C230.923 155.471 220.649 160.646 211.362 160.646L211.355 160.653Z" fill="#FFF4E4"/>
<path d="M179.649 124.393C180.808 124.393 194.181 124.675 204.435 137.42L221.236 138.752L230.876 154.339C230.876 154.339 220.491 159.618 211.348 159.618C210.272 159.618 209.209 159.542 208.181 159.383C198.466 157.824 177.565 151.538 177.565 151.538C177.565 151.538 175.958 126.711 179.559 124.393C179.559 124.393 179.587 124.393 179.642 124.393M179.649 122.323H179.525C179.145 122.336 178.773 122.447 178.449 122.654C176.793 123.723 175.24 126.414 175.15 138.821C175.102 145.314 175.502 151.614 175.509 151.676C175.564 152.538 176.151 153.277 176.979 153.525C177.834 153.78 198.121 159.873 207.864 161.433C208.954 161.605 210.134 161.695 211.355 161.695C220.884 161.695 231.38 156.416 231.821 156.188C232.339 155.926 232.718 155.457 232.877 154.905C233.036 154.346 232.946 153.753 232.642 153.256L223.003 137.668C222.658 137.11 222.064 136.744 221.409 136.695L205.483 135.433C194.774 122.709 181.195 122.329 179.656 122.329L179.649 122.323Z" fill="#221F1F"/>
<path d="M193.967 163.613L206.525 132.01C206.525 132.01 194.202 121.626 172.515 123.24L176.986 154.601L193.974 163.613H193.967Z" fill="#DE423B" stroke="#231F20" stroke-width="2" stroke-linecap="round" stroke-linejoin="round"/>
<path d="M210.865 123.454C210.355 123.454 209.844 123.399 209.347 123.282L148.971 109.681C147.094 109.261 145.473 108.067 144.507 106.397C143.548 104.734 143.327 102.726 143.893 100.891L159.701 50.2298C160.605 47.3318 163.254 45.379 166.284 45.379C166.849 45.379 167.422 45.448 167.974 45.5929L233.698 62.1671C235.678 62.6639 237.32 64.0025 238.218 65.838C239.108 67.6734 239.149 69.7917 238.321 71.6548L217.165 119.335C216.061 121.826 213.584 123.44 210.858 123.44L210.865 123.454Z" fill="#DE423B"/>
<path d="M166.29 46.4278C166.766 46.4278 167.249 46.483 167.725 46.6072L233.449 63.1814C236.975 64.0715 238.852 67.9218 237.375 71.2477L216.219 118.928C215.26 121.08 213.135 122.419 210.858 122.419C210.43 122.419 209.996 122.371 209.568 122.274L149.191 108.674C145.845 107.922 143.858 104.472 144.879 101.201L160.687 50.5403C161.467 48.0425 163.772 46.4209 166.283 46.4209M166.29 44.3578C162.799 44.3578 159.756 46.6003 158.714 49.9331L142.905 100.594C142.25 102.705 142.505 105.01 143.609 106.928C144.713 108.84 146.583 110.22 148.743 110.703L209.119 124.303C209.692 124.434 210.278 124.496 210.865 124.496C213.998 124.496 216.847 122.647 218.117 119.776L239.273 72.0964C240.225 69.9504 240.184 67.5147 239.156 65.4032C238.127 63.2918 236.237 61.753 233.96 61.1803L168.236 44.6062C167.601 44.4475 166.946 44.3647 166.29 44.3647V44.3578Z" fill="#231F20"/>
<path d="M207.642 117.396C207.139 117.396 206.628 117.341 206.138 117.23L159.728 106.859C157.851 106.438 156.223 105.245 155.257 103.575C154.29 101.912 154.07 99.9039 154.642 98.0685L166.725 59.345C167.628 56.4469 170.278 54.4941 173.307 54.4941C173.866 54.4941 174.425 54.5631 174.97 54.6942L225.61 67.2318C227.598 67.7217 229.254 69.0604 230.151 70.9027C231.048 72.745 231.089 74.8703 230.254 76.7402L213.942 113.297C212.831 115.781 210.361 117.389 207.642 117.389V117.396Z" fill="#FFF4E4"/>
<path d="M173.314 55.5291C173.783 55.5291 174.253 55.5843 174.729 55.7017L225.369 68.2392C228.916 69.1155 230.806 72.9865 229.316 76.3262L213.004 112.883C212.045 115.029 209.919 116.361 207.649 116.361C207.228 116.361 206.794 116.312 206.366 116.216L159.956 105.845C156.609 105.1 154.615 101.65 155.636 98.3721L167.718 59.6486C168.498 57.1507 170.803 55.5291 173.314 55.5291ZM173.314 53.4591C169.823 53.4591 166.78 55.7017 165.738 59.0344L153.656 97.758C153 99.8695 153.256 102.181 154.36 104.092C155.464 106.011 157.34 107.384 159.5 107.867L205.911 118.238C206.476 118.362 207.063 118.431 207.642 118.431C210.768 118.431 213.611 116.582 214.888 113.725L231.199 77.168C232.159 75.0152 232.117 72.5656 231.082 70.4542C230.047 68.3358 228.143 66.7971 225.859 66.2313L175.219 53.6937C174.591 53.5419 173.949 53.4591 173.307 53.4591H173.314Z" fill="#221F1F"/>
<path d="M149.345 61.2332C150.33 52.1212 145.578 44.1346 138.732 43.3945C131.886 42.6543 125.537 49.441 124.552 58.553C123.567 67.665 128.319 75.6517 135.165 76.3919C142.011 77.132 148.36 70.3452 149.345 61.2332Z" fill="#231F20"/>
<path d="M178.476 1.45276C174.363 18.2477 182.319 34.2008 195.409 37.1955C207.725 40.0107 220.429 30.2746 224.493 15.3703" stroke="#181818" stroke-width="2" stroke-linecap="round" stroke-linejoin="round"/>
<path d="M177.951 178.517C177.903 178.517 177.847 178.517 177.799 178.503L154.401 175.067C154.242 175.046 138.213 172.707 130.257 171.513C129.746 171.438 129.367 170.996 129.374 170.478C129.45 165.234 129.374 159.88 129.312 154.705C129.277 152.117 129.243 149.537 129.229 146.956C129.229 146.211 129.16 145.362 129.084 144.458C128.932 142.505 128.753 140.297 129.208 138.517C130.25 134.384 131.409 130.202 132.527 126.166C133.438 122.888 134.383 119.493 135.253 116.147C135.584 114.863 136.495 113.338 138.951 113.338C139.952 113.338 141.001 113.587 141.932 113.808C142.249 113.884 142.553 113.952 142.843 114.015C146.093 114.67 149.398 115.36 152.676 116.071C154.925 116.554 157.188 117.03 159.452 117.499C166.4 118.941 173.576 120.439 180.463 122.384C184.471 123.309 190.599 131.651 191.427 135.529C192.365 139.952 190.544 145.086 188.929 149.619C188.556 150.675 188.198 151.676 187.901 152.607C185.32 160.673 182.381 168.933 178.917 177.855C178.758 178.255 178.372 178.517 177.951 178.517Z" fill="#DE423B"/>
<path d="M138.951 114.38C140.152 114.38 141.525 114.808 142.636 115.036C145.914 115.698 149.184 116.382 152.455 117.085C161.667 119.073 171.12 120.818 180.18 123.385C183.719 124.199 189.654 132.19 190.413 135.75C191.51 140.891 188.46 147.467 186.914 152.297C184.202 160.784 181.18 169.181 177.951 177.482L154.553 174.046C154.553 174.046 138.455 171.7 130.416 170.499C130.526 162.668 130.319 154.795 130.271 146.956C130.257 144.52 129.615 141.16 130.216 138.779C132.099 131.3 134.314 123.889 136.26 116.416C136.674 114.836 137.723 114.38 138.958 114.38M138.951 112.31C136.557 112.31 134.846 113.615 134.252 115.892C133.383 119.231 132.445 122.619 131.534 125.897C130.409 129.94 129.25 134.122 128.208 138.269C127.718 140.215 127.897 142.512 128.056 144.541C128.125 145.424 128.194 146.252 128.194 146.963C128.208 149.544 128.242 152.173 128.277 154.712C128.346 159.887 128.415 165.235 128.339 170.465C128.325 171.5 129.077 172.39 130.105 172.542C138.061 173.736 154.09 176.068 154.249 176.095L177.64 179.532C177.744 179.545 177.841 179.552 177.944 179.552C178.786 179.552 179.559 179.035 179.869 178.234C183.34 169.299 186.286 161.019 188.874 152.925C189.164 152.007 189.516 151.02 189.895 149.971C191.551 145.307 193.428 140.028 192.427 135.322C191.551 131.21 185.196 122.488 180.69 121.384C173.783 119.431 166.593 117.934 159.645 116.492C157.423 116.03 155.118 115.553 152.883 115.064C149.619 114.36 146.307 113.67 143.036 113.007C142.76 112.952 142.464 112.883 142.16 112.807C141.18 112.573 140.062 112.31 138.944 112.31H138.951Z" fill="#231F20"/>
<path d="M176.446 121.501L178.282 125.662C178.875 127.014 180.214 127.884 181.69 127.884C184.361 127.884 186.217 125.131 185.12 122.702C184.009 120.246 181.739 118.162 178.454 116.388L176.446 121.501Z" fill="#DE423B" stroke="#231F20" stroke-width="2" stroke-linecap="round" stroke-linejoin="round"/>
<path d="M199.501 178.421L128.774 183.892C128.774 183.892 115.084 211.617 135.612 224.334L201.957 212.045L189.958 229.054L203.068 247.739C203.068 247.739 244.303 205.869 247.222 193.228C251.272 175.695 220.084 175.033 199.494 178.421H199.501Z" fill="#231F20" stroke="#231F20" stroke-width="2" stroke-miterlimit="10"/>
<path d="M141.132 116.071C140.87 115.526 140.594 115.008 140.318 114.518C137.537 109.688 133.824 107.846 128.843 105.741C127.635 105.231 116.912 100.415 116.491 103.147C116.491 103.154 111.358 136.061 111.358 136.061C118.272 137.061 125.227 137.896 132.086 139.228C133.252 139.456 134.459 139.69 135.618 139.428C146.286 136.999 144.941 123.958 141.132 116.064V116.071Z" fill="#DE423B" stroke="#231F20" stroke-width="2" stroke-linecap="round" stroke-linejoin="round"/>
<path d="M226.135 240.867L184.023 254.812C184.023 254.812 151.048 286.263 144.258 281.108C137.468 275.954 156.658 257.344 158.983 250.624C161.308 243.903 171.362 247.201 171.362 247.201L189.964 229.054L226.135 240.867Z" fill="#DE423B" stroke="#231F20" stroke-width="2" stroke-linecap="round" stroke-linejoin="round"/>
<path d="M217.662 143.14L214.888 138.02L231.593 128.967L238.376 126.801C238.376 126.801 234.098 124.268 236.582 121.591C239.066 118.914 232.897 113.435 234.905 113.456C236.913 113.477 238.493 108.419 241.46 108.115C244.427 107.812 251.093 109.233 254.074 114.767C257.062 120.294 257.793 130.458 256.592 132.473C255.385 134.487 240.46 154.995 238.121 157.969C235.23 161.653 230.669 166.152 225.638 155.664L217.662 143.147V143.14Z" fill="#231F20" stroke="#231F20" stroke-width="2" stroke-miterlimit="10"/>
<path d="M235.74 160.177C232.994 160.177 230.551 157.879 228.267 153.146L220.325 140.677C220.325 140.677 220.298 140.636 220.291 140.615L218.628 137.544C218.386 137.096 218.504 136.544 218.904 136.233L233.008 125.359L233.049 121.791C232.145 121.018 230.165 119.107 229.979 116.975C229.889 115.954 230.22 115.008 230.945 114.229C234.077 110.848 236.313 109.399 238.418 109.399C238.887 109.399 239.756 108.281 240.329 107.536C241.46 106.08 242.861 104.272 244.897 104.058C245.187 104.03 245.497 104.016 245.821 104.016C248.864 104.016 255.44 105.528 258.531 111.248C261.478 116.713 262.568 127.394 261.022 129.975C259.711 132.169 244.669 152.794 242.475 155.581C240.798 157.72 238.514 160.17 235.74 160.17V160.177Z" fill="#DE423B"/>
<path d="M245.814 105.058C249.05 105.058 254.874 106.68 257.613 111.745C260.601 117.272 261.332 127.435 260.132 129.45C258.924 131.465 243.999 151.972 241.66 154.946C240.107 156.927 238.072 159.142 235.74 159.142C233.732 159.142 231.503 157.499 229.178 152.642L221.201 140.125L219.538 137.054L234.035 125.876L234.084 121.308C234.084 121.308 229.219 117.617 231.696 114.939C234.166 112.276 236.409 110.447 238.41 110.447C238.424 110.447 238.431 110.447 238.444 110.447C238.444 110.447 238.451 110.447 238.458 110.447C240.466 110.447 242.039 105.41 245 105.107C245.248 105.079 245.524 105.065 245.821 105.065M245.814 102.988C245.455 102.988 245.103 103.002 244.786 103.037C242.315 103.292 240.756 105.3 239.507 106.908C239.121 107.404 238.562 108.129 238.244 108.37C235.264 108.46 232.497 111.02 230.178 113.525C229.253 114.525 228.826 115.747 228.943 117.065C229.143 119.307 230.889 121.232 232.007 122.253L231.979 124.841L218.275 135.405C217.468 136.026 217.233 137.137 217.716 138.034L219.379 141.105C219.4 141.146 219.428 141.187 219.455 141.229L227.37 153.642C229.833 158.728 232.572 161.205 235.747 161.205C238.921 161.205 241.474 158.541 243.295 156.223C245.489 153.428 260.594 132.721 261.919 130.506C263.658 127.594 262.65 116.692 259.448 110.758C256.136 104.624 249.326 102.981 245.828 102.981L245.814 102.988Z" fill="#231F20"/>
<path d="M243.64 105.038C243.64 105.038 235.07 110.937 240.28 115.878C242.501 117.982 246.083 115.008 246.083 115.008C246.083 115.008 241.108 117.382 242.336 120.17C244.985 126.194 250.25 122.233 250.25 122.233C250.25 122.233 244.385 125.497 246.317 127.787C250.492 132.749 254.397 127.781 254.397 127.781" fill="#DE423B"/>
<path d="M243.64 105.038C243.64 105.038 235.07 110.937 240.28 115.878C242.501 117.982 246.083 115.008 246.083 115.008C246.083 115.008 241.108 117.382 242.336 120.17C244.985 126.193 250.25 122.233 250.25 122.233C250.25 122.233 244.385 125.497 246.317 127.787C250.492 132.749 254.397 127.781 254.397 127.781" stroke="#231F20" stroke-width="2" stroke-linecap="round" stroke-linejoin="round"/>
<path d="M242.026 120.715C239.059 124.158 236.686 124.779 233.015 121.577" stroke="#231F20" stroke-width="2" stroke-linecap="round" stroke-linejoin="round"/>
<path d="M40.4387 148.426C40.4387 148.426 38.6377 142.098 40.5697 137.8C42.5018 133.501 50.092 124.53 60.4491 119.549L77.6512 144.127C77.6512 144.127 79.6315 159.073 71.6618 164.241C63.6922 169.409 54.2803 167.746 57.7442 164.662C61.2081 161.577 65.8519 154.173 62.5537 154.725C59.5866 155.222 51.9481 160.694 49.5468 166.559C49.0707 167.725 47.739 168.277 46.566 167.829C43.9647 166.849 40.3214 164.572 41.4461 159.666C41.4461 159.666 37.2025 152.793 40.4456 148.426H40.4387Z" fill="#DE423B" stroke="#231F20" stroke-width="2" stroke-linecap="round" stroke-linejoin="round"/>
<path d="M191.828 96.1847C191.255 98.6342 192.725 101.091 195.112 101.67C197.5 102.25 199.908 100.739 200.48 98.2893" fill="#FFF4E4"/>
<path d="M191.828 96.1847C191.255 98.6342 192.725 101.091 195.112 101.67C197.5 102.25 199.908 100.739 200.48 98.2893" stroke="#221F1F" stroke-width="2" stroke-linecap="round" stroke-linejoin="round"/>
<path d="M191.828 96.1848C191.255 98.6344 188.847 100.152 186.459 99.5659C184.072 98.9863 182.595 96.5299 183.175 94.0803" fill="#FFF4E4"/>
<path d="M191.828 96.1848C191.255 98.6344 188.847 100.152 186.459 99.5659C184.072 98.9863 182.595 96.5299 183.175 94.0803" stroke="#221F1F" stroke-width="2" stroke-linecap="round" stroke-linejoin="round"/>
<path d="M214.509 93.8732C215.695 90.2851 214.384 86.6143 211.569 85.6828C208.754 84.7512 205.511 86.9041 204.317 90.4921" fill="#FFF4E4"/>
<path d="M214.509 93.8732C215.695 90.2851 214.384 86.6143 211.569 85.6828C208.754 84.7512 205.511 86.9041 204.317 90.4921" stroke="#221F1F" stroke-width="2" stroke-linecap="round" stroke-linejoin="round"/>
<path d="M183.293 84.6063C184.548 80.8113 183.155 76.9334 180.181 75.9467C177.207 74.96 173.77 77.237 172.515 81.0321" fill="#FFF4E4"/>
<path d="M183.293 84.6063C184.548 80.8113 183.155 76.9334 180.181 75.9467C177.207 74.96 173.77 77.237 172.515 81.0321" stroke="#221F1F" stroke-width="2" stroke-linecap="round" stroke-linejoin="round"/>
<path d="M83.9091 140.007L99.8346 130.589C99.8346 130.589 98.3373 95.9846 92.6516 94.2527C86.9659 92.5207 66.7002 115.429 66.7002 115.429L83.9022 140.007H83.9091Z" fill="#231F20" stroke="#231F20" stroke-width="2" stroke-miterlimit="10"/>
<path d="M77.6514 144.127L93.5769 134.708C93.5769 134.708 92.0795 100.104 86.3938 98.372C80.715 96.6401 60.4424 119.549 60.4424 119.549L77.6445 144.127H77.6514Z" fill="#DE423B" stroke="#231F20" stroke-width="2" stroke-linecap="round" stroke-linejoin="round"/>
<path d="M252.651 139.29C252.651 139.29 238.092 138.841 232.972 125.862L252.651 139.29Z" fill="#DE423B"/>
<path d="M252.651 139.29C252.651 139.29 238.092 138.841 232.972 125.862" stroke="#231F20" stroke-width="2" stroke-linecap="round" stroke-linejoin="round"/>
<path d="M201.963 212.045L135.618 224.334L166.738 222.43" fill="white"/>
<path d="M134.929 67.3284C131.706 67.3284 128.87 65.631 127.338 62.7882L114.139 38.2719C113.987 37.9959 113.973 37.6647 114.097 37.3818C114.221 37.092 114.463 36.8781 114.766 36.7884L121.929 34.7391L111.585 13.3694C111.372 12.9278 111.496 12.4033 111.882 12.0997C112.069 11.9548 112.296 11.8789 112.517 11.8789C112.752 11.8789 112.993 11.9617 113.186 12.1204L137.151 32.3585C137.53 32.6828 137.627 33.2279 137.385 33.6627L131.996 43.1434L141.18 52.7139C143.45 55.0807 144.189 58.5929 143.057 61.6703C141.794 65.1066 138.606 67.3284 134.936 67.3284H134.929Z" fill="white"/>
<path d="M112.517 12.9138L136.482 33.1519L130.713 43.302L140.436 53.4314C142.45 55.5291 143.085 58.5858 142.085 61.3183C140.877 64.5959 137.91 66.3002 134.936 66.3002C132.328 66.3002 129.713 64.9961 128.257 62.305L115.057 37.7888L123.406 35.4014L112.524 12.9207M112.517 10.8438C112.069 10.8438 111.62 10.9887 111.248 11.2785C110.475 11.8788 110.227 12.9345 110.654 13.8177L120.466 34.0765L114.484 35.7878C113.884 35.9603 113.387 36.395 113.145 36.9746C112.904 37.5542 112.932 38.2097 113.228 38.7617L126.428 63.2779C128.146 66.4658 131.32 68.3633 134.929 68.3633C139.042 68.3633 142.609 65.8793 144.024 62.029C145.286 58.5858 144.465 54.6458 141.926 51.9962L133.273 42.9846L138.283 34.1731C138.773 33.3037 138.579 32.2135 137.82 31.5718L113.856 11.3337C113.47 11.0094 112.994 10.8438 112.517 10.8438Z" fill="#221F1F"/>
<path d="M164.792 259.939C162.778 259.939 160.873 258.842 159.831 257.068C158.782 255.288 158.755 253.149 159.762 251.334L168.201 236.071C168.353 235.795 168.622 235.609 168.926 235.554C168.988 235.547 169.043 235.54 169.105 235.54C169.353 235.54 169.595 235.63 169.788 235.795L172.948 238.569L180.456 226.266C180.649 225.949 180.987 225.769 181.339 225.769C181.456 225.769 181.567 225.79 181.684 225.825C182.146 225.99 182.429 226.452 182.367 226.935L179.835 246.415C179.773 246.911 179.366 247.284 178.862 247.312L172.327 247.67L170.464 255.474C169.954 257.614 168.236 259.304 166.09 259.787C165.655 259.884 165.22 259.932 164.786 259.932L164.792 259.939Z" fill="white"/>
<path d="M181.339 226.804L178.806 246.284L171.506 246.684L169.463 255.233C169.043 257.006 167.649 258.379 165.868 258.773C165.503 258.856 165.144 258.89 164.792 258.89C161.321 258.89 158.865 255.081 160.666 251.817L169.105 236.554L173.19 240.142L181.339 226.791M181.339 224.734C181.27 224.734 181.201 224.734 181.125 224.748C180.766 224.783 180.435 224.914 180.152 225.107C179.979 225.224 179.827 225.369 179.696 225.542C179.641 225.611 179.593 225.687 179.545 225.763L172.7 236.982L170.464 235.016C170.084 234.684 169.594 234.498 169.098 234.498C168.98 234.498 168.863 234.505 168.739 234.526C168.125 234.636 167.587 235.016 167.283 235.561L158.844 250.824C157.664 252.963 157.692 255.488 158.927 257.586C160.155 259.67 162.398 260.967 164.778 260.967C165.289 260.967 165.799 260.912 166.303 260.795C168.836 260.229 170.857 258.235 171.458 255.709L173.141 248.657L178.903 248.34C179.896 248.285 180.711 247.526 180.842 246.539L183.367 227.149C183.388 227.032 183.395 226.915 183.395 226.791C183.395 225.687 182.525 224.783 181.435 224.721C181.401 224.721 181.359 224.721 181.325 224.721L181.339 224.734Z" fill="#221F1F"/>
<path d="M43.5716 253.963C43.4612 253.963 43.3508 253.963 43.2335 253.957C41.0945 253.825 39.2935 252.494 38.5345 250.486C37.7755 248.478 38.2516 246.29 39.7696 244.772L51.0444 233.532C51.2376 233.339 51.4999 233.228 51.7759 233.228C51.8104 233.228 51.8517 233.228 51.8862 233.228C52.1967 233.263 52.4796 233.435 52.6452 233.698L54.6532 236.844L64.2858 228.04C64.4859 227.86 64.7343 227.771 64.9827 227.771C65.1897 227.771 65.4036 227.833 65.583 227.964C65.9832 228.247 66.1281 228.771 65.928 229.22L58.7588 245.663C58.5932 246.049 58.2137 246.284 57.8135 246.284C57.7376 246.284 57.6547 246.277 57.5788 246.256L51.8241 244.924L48.243 251.238C47.2908 252.921 45.4967 253.963 43.5647 253.963H43.5716Z" fill="white"/>
<path d="M64.9962 228.805L57.8269 245.248L51.3201 243.744L47.3595 250.727C46.5866 252.093 45.1376 252.928 43.5782 252.928C43.4885 252.928 43.3988 252.928 43.3091 252.921C39.5692 252.687 37.8579 248.146 40.5076 245.504L51.7824 234.263L54.4528 238.445L64.9893 228.805M64.9962 226.735C64.4925 226.735 63.9888 226.922 63.5955 227.28L54.8737 235.257L53.5281 233.146C53.19 232.614 52.6312 232.269 52.0102 232.2C51.9343 232.193 51.8583 232.186 51.7824 232.186C51.2373 232.186 50.7129 232.4 50.3196 232.794L39.0448 244.034C37.23 245.842 36.6711 248.45 37.5681 250.844C38.472 253.239 40.618 254.826 43.171 254.984C43.3021 254.991 43.4402 254.998 43.5713 254.998C45.8759 254.998 48.015 253.756 49.1535 251.748L52.3552 246.111L57.3578 247.27C57.5165 247.305 57.6682 247.325 57.8269 247.325C58.6342 247.325 59.3864 246.849 59.7245 246.083L66.8937 229.64C67.287 228.743 66.9972 227.694 66.1968 227.129C65.838 226.873 65.4102 226.742 64.9962 226.742V226.735Z" fill="#221F1F"/>
<path d="M186.501 142.926L178.801 141.084L181.768 139.138L174.378 138.076L177.655 135.799C175.392 135.523 173.053 135.24 170.631 134.95C164.904 134.26 157.121 131.824 151.897 138.165C148.744 141.995 148.095 147.687 150.552 151.621C154.147 157.389 162.523 156.168 167.788 154.222L177.11 151.269L175.323 150.02L181.789 147.75L177.745 146.169L186.515 142.933L186.501 142.926Z" fill="#231F20"/>
<path d="M164.91 151.22C164.337 151.22 163.813 150.917 163.468 150.385C163.219 149.992 162.902 149.178 163.592 148.115C163.833 147.75 164.075 147.384 164.323 147.018C164.247 146.997 163.93 146.894 163.93 146.894C163.868 146.873 163.806 146.852 163.744 146.818C163.626 146.783 163.516 146.742 163.405 146.687C161.715 145.88 160.832 144.693 160.708 143.051C160.611 141.753 161.004 140.553 161.812 139.683C162.509 138.931 163.447 138.517 164.441 138.517C165.02 138.517 165.586 138.655 166.138 138.931C166.29 139.007 166.483 139.104 166.6 139.145C166.621 139.124 166.642 139.097 166.669 139.055C166.828 138.835 167.014 138.738 167.09 138.697C167.359 138.538 167.656 138.448 167.96 138.448C168.277 138.448 168.884 138.559 169.374 139.269C169.609 139.614 169.712 139.994 169.692 140.366C169.995 140.194 170.278 140.152 170.478 140.152C170.961 140.152 171.423 140.38 171.762 140.808C172.341 141.519 172.307 142.416 171.672 143.161C171.672 143.161 171.361 143.534 171.299 143.603C171.389 143.713 171.465 143.83 171.541 143.941C172.093 144.755 171.989 145.714 171.272 146.452C171.12 146.604 170.664 147.073 170.009 147.073C169.616 147.073 169.25 146.915 168.919 146.597C168.029 147.839 167.221 149.074 166.483 150.247C166.09 150.861 165.517 151.213 164.903 151.213L164.91 151.22Z" fill="white"/>
<path d="M167.966 139.497C168.187 139.497 168.366 139.635 168.518 139.863C168.753 140.215 168.698 140.539 168.401 140.87C167.842 141.512 167.849 141.519 168.422 142.071C168.491 142.14 168.567 142.202 168.629 142.278C168.718 142.388 168.815 142.443 168.905 142.443C169.008 142.443 169.119 142.374 169.229 142.243C169.484 141.953 169.74 141.664 170.016 141.415C170.174 141.27 170.333 141.201 170.478 141.201C170.65 141.201 170.816 141.298 170.961 141.47C171.23 141.802 171.182 142.154 170.885 142.499C170.685 142.733 170.492 142.982 170.278 143.209C170.016 143.492 169.953 143.727 170.243 143.989C170.416 144.141 170.554 144.341 170.685 144.534C170.961 144.941 170.899 145.362 170.533 145.742C170.333 145.949 170.167 146.045 170.009 146.045C169.85 146.045 169.691 145.942 169.519 145.728C169.415 145.611 169.312 145.493 169.222 145.362C169.105 145.197 169.008 145.107 168.891 145.107C168.774 145.107 168.649 145.203 168.498 145.41C167.483 146.784 166.538 148.226 165.606 149.695C165.399 150.02 165.144 150.178 164.896 150.178C164.682 150.178 164.482 150.061 164.33 149.82C164.088 149.447 164.199 149.061 164.447 148.674C165.427 147.177 166.462 145.735 167.545 144.348C167.814 144.003 167.897 143.741 167.566 143.465C167.483 143.396 167.414 143.292 167.338 143.209C167.076 142.919 166.931 142.775 166.786 142.775C166.641 142.775 166.483 142.926 166.193 143.23C166 143.43 165.82 143.534 165.655 143.534C165.489 143.534 165.317 143.423 165.158 143.202C164.875 142.802 164.93 142.388 165.241 142.009C165.482 141.712 165.386 141.567 165.151 141.415C164.972 141.298 164.765 141.243 164.564 141.243C164.282 141.243 163.999 141.353 163.805 141.574C163.412 142.016 163.329 142.754 163.598 143.223C164.006 143.927 164.661 144.21 165.337 144.444C165.896 144.638 166.014 144.865 165.876 145.348C165.724 145.859 165.475 146.094 165.068 146.094C164.992 146.094 164.903 146.087 164.813 146.066C164.606 146.025 164.413 145.949 164.206 145.893C164.206 145.893 164.206 145.887 164.206 145.88C164.081 145.838 163.957 145.804 163.84 145.749C162.736 145.224 161.839 144.431 161.729 142.975C161.584 141.001 162.874 139.552 164.426 139.552C164.827 139.552 165.241 139.649 165.662 139.856C166.027 140.035 166.345 140.201 166.655 140.201C166.945 140.201 167.214 140.056 167.504 139.656C167.525 139.628 167.559 139.614 167.587 139.601C167.718 139.525 167.835 139.49 167.946 139.49M167.966 137.427C167.49 137.427 167.028 137.551 166.593 137.807C166.545 137.834 166.483 137.869 166.4 137.917C165.765 137.634 165.11 137.489 164.447 137.489C163.157 137.489 161.956 138.02 161.059 138.986C160.066 140.056 159.569 141.567 159.679 143.133C159.824 145.072 160.852 146.549 162.743 147.515C162.743 147.522 162.729 147.536 162.722 147.543C161.673 149.15 162.281 150.454 162.591 150.937C163.122 151.772 163.964 152.248 164.903 152.248C165.841 152.248 166.772 151.724 167.359 150.806C167.945 149.889 168.56 148.93 169.215 147.977C169.512 148.081 169.788 148.108 170.016 148.108C170.747 148.108 171.416 147.798 172.023 147.177C172.996 146.176 173.21 144.838 172.589 143.672C173.41 142.581 173.41 141.188 172.569 140.152C172.024 139.483 171.285 139.117 170.485 139.117C170.416 138.973 170.333 138.828 170.243 138.683C169.491 137.572 168.498 137.406 167.973 137.406L167.966 137.427Z" fill="#231F20"/>
<path d="M174.204 154.132C173.639 154.132 173.08 153.98 172.486 153.663C171.796 153.297 171.368 152.69 171.23 151.931C171.155 151.938 171.085 151.945 171.01 151.945C170.354 151.945 169.609 151.545 169.498 150.427C169.395 149.378 169.961 148.529 170.913 148.302C171.375 148.191 171.817 148.129 172.252 148.067C172.459 147.556 172.659 147.053 172.866 146.542C172.735 146.487 172.597 146.425 172.465 146.363C172.141 146.211 171.127 145.59 171.672 144.12C172.065 143.05 172.804 142.892 173.204 142.892C173.397 142.892 173.59 142.926 173.797 142.995C173.915 143.037 174.039 143.078 174.149 143.126C174.204 142.995 174.26 142.857 174.329 142.726C174.646 142.078 175.191 141.705 175.833 141.705C176.095 141.705 176.35 141.767 176.606 141.891C177.006 142.091 177.875 142.692 177.42 144.065C177.372 144.203 177.323 144.341 177.275 144.479L177.371 144.513C177.413 144.527 177.454 144.548 177.489 144.569L177.572 144.603C177.73 144.665 177.889 144.727 178.048 144.796C178.413 144.955 179.552 145.604 178.876 147.17C178.448 148.164 177.661 148.274 177.344 148.274C177.089 148.274 176.833 148.212 176.578 148.094C176.385 148.005 176.192 147.922 175.998 147.846C175.985 147.846 175.971 147.832 175.957 147.825C175.874 148.046 175.791 148.267 175.709 148.488C175.971 148.626 176.219 148.798 176.433 149.005C177.164 149.709 177.392 150.703 177.075 151.793C176.64 153.297 175.715 153.835 175.019 154.029C174.749 154.105 174.473 154.139 174.204 154.139V154.132Z" fill="white"/>
<path d="M175.832 142.733C175.936 142.733 176.039 142.761 176.15 142.816C176.516 142.995 176.598 143.251 176.44 143.734C176.343 144.024 176.233 144.313 176.115 144.596C175.984 144.914 176.033 145.114 176.302 145.21C176.536 145.293 176.757 145.39 176.985 145.479C176.985 145.479 176.985 145.479 176.985 145.486C177.199 145.569 177.413 145.645 177.626 145.742C178.075 145.942 178.158 146.218 177.923 146.756C177.785 147.073 177.585 147.232 177.337 147.232C177.233 147.232 177.123 147.204 177.006 147.149C176.598 146.963 176.184 146.804 175.77 146.618C175.694 146.583 175.625 146.563 175.556 146.563C175.384 146.563 175.253 146.701 175.156 146.963C174.956 147.508 174.756 148.053 174.535 148.591C174.376 148.971 174.466 149.15 174.77 149.233C175.115 149.323 175.432 149.488 175.694 149.744C176.15 150.178 176.274 150.765 176.06 151.496C175.839 152.262 175.439 152.828 174.728 153.021C174.542 153.07 174.363 153.097 174.19 153.097C173.755 153.097 173.348 152.952 172.962 152.745C172.479 152.49 172.196 152.035 172.21 151.351C172.217 150.855 172.224 150.696 172.017 150.696C171.92 150.696 171.768 150.73 171.547 150.786C171.458 150.806 171.368 150.834 171.278 150.855C171.175 150.882 171.078 150.896 170.995 150.896C170.699 150.896 170.554 150.71 170.512 150.31C170.464 149.799 170.685 149.406 171.133 149.295C171.623 149.178 172.113 149.116 172.596 149.047C172.796 149.019 172.976 148.985 173.079 148.729C173.39 147.963 173.693 147.191 174.004 146.425C174.128 146.128 174.066 145.935 173.831 145.824C173.521 145.686 173.203 145.555 172.893 145.41C172.513 145.231 172.444 144.962 172.624 144.465C172.762 144.086 172.934 143.913 173.183 143.913C173.259 143.913 173.341 143.927 173.438 143.961C173.735 144.065 174.032 144.182 174.308 144.32C174.397 144.362 174.473 144.382 174.542 144.382C174.708 144.382 174.825 144.258 174.915 143.989C175.004 143.713 175.108 143.43 175.232 143.168C175.377 142.871 175.577 142.726 175.805 142.726M174.377 151.69C174.549 151.69 174.708 151.614 174.825 151.338C174.97 151 174.804 150.717 174.356 150.558C174.252 150.544 174.135 150.489 174.018 150.489C173.887 150.489 173.762 150.558 173.659 150.813C173.514 151.193 173.659 151.51 174.045 151.627C174.149 151.662 174.266 151.69 174.37 151.69M175.832 140.663C174.942 140.663 174.142 141.112 173.618 141.878C173.48 141.857 173.342 141.843 173.204 141.843C172.665 141.843 171.34 142.029 170.706 143.748C170.133 145.293 170.733 146.404 171.561 147.004C171.547 147.046 171.534 147.08 171.513 147.122C171.244 147.163 170.961 147.218 170.678 147.287C169.222 147.632 168.311 148.964 168.47 150.523C168.615 151.938 169.498 152.697 170.45 152.911C170.754 153.615 171.278 154.187 171.989 154.567C172.734 154.967 173.459 155.16 174.197 155.16C174.563 155.16 174.929 155.112 175.28 155.015C176.06 154.802 177.454 154.139 178.054 152.069C178.351 151.055 178.275 150.075 177.861 149.24C178.717 149.067 179.421 148.467 179.814 147.57C180.58 145.797 179.731 144.444 178.523 143.879C178.793 142.402 177.937 141.395 177.054 140.96C176.654 140.767 176.24 140.663 175.826 140.663H175.832Z" fill="#231F20"/>
<path d="M156.016 147.694C155.588 147.694 154.546 147.529 154.084 146.031C153.898 145.431 153.856 144.845 153.815 144.279L153.794 144.044C153.711 142.947 154.484 141.878 155.554 141.608C155.692 141.574 155.837 141.553 155.968 141.553C156.32 141.553 156.727 141.684 157.03 142.029C157.3 141.505 157.52 140.891 157.741 140.083C157.831 139.738 157.886 139.366 157.948 138.973C157.983 138.717 158.024 138.462 158.072 138.207C158.162 137.737 158.397 136.489 159.735 136.309C159.859 136.295 159.984 136.281 160.094 136.281C160.708 136.281 161.233 136.516 161.584 136.937C161.86 137.268 162.143 137.875 161.95 138.862C161.674 140.242 161.357 141.339 160.943 142.326C160.908 142.416 160.867 142.554 160.819 142.685C160.701 143.016 160.584 143.361 160.425 143.706C159.673 145.348 158.673 146.508 157.369 147.267C156.885 147.549 156.437 147.687 156.009 147.687L156.016 147.694Z" fill="white"/>
<path d="M160.107 137.323C160.797 137.323 161.115 137.806 160.942 138.669C160.721 139.78 160.439 140.884 159.997 141.933C159.831 142.381 159.693 142.85 159.493 143.285C158.9 144.568 158.093 145.666 156.857 146.383C156.54 146.569 156.257 146.659 156.016 146.659C155.574 146.659 155.263 146.349 155.07 145.728C154.898 145.162 154.877 144.562 154.829 143.961C154.78 143.347 155.236 142.754 155.809 142.609C155.864 142.595 155.919 142.588 155.967 142.588C156.188 142.588 156.319 142.733 156.388 142.975C156.443 143.154 156.45 143.354 156.505 143.533C156.568 143.734 156.671 143.844 156.809 143.844C156.892 143.844 156.989 143.803 157.092 143.72C157.251 143.589 157.389 143.423 157.513 143.244C158.113 142.367 158.465 141.381 158.741 140.359C158.914 139.718 158.962 139.055 159.086 138.407C159.176 137.937 159.279 137.427 159.873 137.344C159.949 137.33 160.025 137.33 160.1 137.33M160.107 135.253C159.949 135.253 159.776 135.267 159.611 135.288C158.658 135.412 157.444 135.992 157.064 138.02C157.016 138.289 156.975 138.558 156.933 138.828C156.878 139.186 156.83 139.531 156.754 139.814C156.678 140.097 156.602 140.346 156.526 140.58C156.354 140.539 156.167 140.518 155.981 140.518C155.76 140.518 155.533 140.546 155.312 140.601C153.745 141.001 152.655 142.512 152.773 144.113L152.786 144.341C152.828 144.934 152.876 145.61 153.097 146.328C153.78 148.55 155.505 148.722 156.016 148.722C156.637 148.722 157.251 148.536 157.892 148.163C159.383 147.294 160.521 145.983 161.37 144.141C161.549 143.747 161.681 143.361 161.798 143.023C161.839 142.906 161.874 142.795 161.915 142.678C162.35 141.636 162.681 140.49 162.964 139.062C163.24 137.675 162.798 136.785 162.384 136.281C161.839 135.612 161.025 135.246 160.1 135.246L160.107 135.253Z" fill="#231F20"/>
<path d="M177.075 154.926C176.358 154.926 175.757 154.498 175.509 153.801C175.267 153.118 175.55 152.531 175.702 152.214C176.082 151.427 176.427 150.627 176.772 149.73C177.441 147.984 177.883 146.521 178.159 145.127C178.448 143.658 179.435 143.499 179.849 143.499C179.946 143.499 180.042 143.499 180.146 143.52C180.746 143.609 181.064 143.92 181.236 144.168C181.602 144.707 181.512 145.321 181.416 145.742C181.146 146.915 180.794 148.019 180.422 149.192L180.153 150.047C180.153 150.047 180.132 150.109 180.118 150.137L179.711 151.11C179.352 151.972 178.987 152.856 178.614 153.732C178.207 154.698 177.579 154.912 177.124 154.926C177.117 154.926 177.089 154.926 177.082 154.926H177.075Z" fill="white"/>
<path d="M179.849 144.534C179.89 144.534 179.939 144.534 179.987 144.548C180.422 144.617 180.553 144.886 180.408 145.514C180.084 146.928 179.614 148.302 179.166 149.737C178.683 150.896 178.179 152.111 177.669 153.332C177.551 153.608 177.393 153.884 177.103 153.891C177.103 153.891 177.089 153.891 177.082 153.891C176.806 153.891 176.599 153.753 176.489 153.456C176.385 153.166 176.537 152.89 176.661 152.621C177.061 151.8 177.413 150.958 177.744 150.103C178.338 148.543 178.855 146.97 179.18 145.335C179.29 144.776 179.504 144.534 179.856 144.534M179.849 142.464C178.78 142.464 177.51 143.113 177.144 144.927C176.875 146.266 176.454 147.674 175.806 149.364C175.474 150.234 175.143 151.006 174.798 151.724L174.777 151.765C174.591 152.152 174.143 153.063 174.536 154.16C174.936 155.278 175.909 155.975 177.075 155.975C177.089 155.975 177.13 155.975 177.144 155.975C177.765 155.961 178.911 155.705 179.566 154.146C179.946 153.249 180.318 152.352 180.677 151.483L181.063 150.551C181.091 150.496 181.112 150.434 181.126 150.372C181.215 150.082 181.305 149.799 181.395 149.516C181.76 148.378 182.133 147.198 182.409 145.99C182.623 145.052 182.512 144.244 182.071 143.603C181.671 143.016 181.036 142.63 180.284 142.512C180.132 142.492 179.98 142.478 179.835 142.478L179.849 142.464Z" fill="#231F20"/>
<path d="M150.413 142.643C150.095 142.643 149.785 142.554 149.495 142.374C148.564 141.802 148.136 140.642 148.508 139.69C148.522 139.649 148.543 139.607 148.564 139.573C148.598 139.504 148.653 139.393 148.729 139.304C149.571 138.207 150.654 137.31 152.041 136.564C152.317 136.419 152.6 136.344 152.89 136.344C153.815 136.344 154.325 137.096 154.539 137.413C154.96 138.034 155.07 139 154.091 139.828C153.214 140.566 152.504 141.208 151.862 141.919C151.696 142.098 151.199 142.657 150.413 142.657V142.643Z" fill="white"/>
<path d="M152.89 137.365C153.235 137.365 153.476 137.675 153.683 137.979C153.973 138.4 153.752 138.738 153.421 139.021C152.614 139.704 151.813 140.408 151.096 141.208C150.902 141.429 150.675 141.601 150.412 141.601C150.295 141.601 150.171 141.567 150.04 141.484C149.536 141.174 149.281 140.553 149.474 140.056C149.488 140.028 149.515 139.966 149.55 139.918C150.364 138.855 151.392 138.069 152.531 137.461C152.662 137.392 152.779 137.358 152.89 137.358M152.89 135.295C152.434 135.295 151.979 135.412 151.551 135.64C150.026 136.454 148.839 137.448 147.908 138.662C147.777 138.835 147.694 138.993 147.632 139.11C147.597 139.173 147.57 139.242 147.542 139.304C146.983 140.739 147.577 142.395 148.95 143.244C149.398 143.52 149.909 143.672 150.412 143.672C151.24 143.672 151.986 143.306 152.634 142.588C153.235 141.919 153.925 141.305 154.76 140.594C156.167 139.407 156.091 137.834 155.394 136.813C155.139 136.433 154.359 135.288 152.89 135.288V135.295Z" fill="#231F20"/>
<path d="M162.863 94.1095L170.614 96.163C171.984 96.5261 173.389 95.7095 173.752 94.3391L173.754 94.3325C174.117 92.9622 173.3 91.5569 171.93 91.1938L164.18 89.1403C162.809 88.7772 161.404 89.5938 161.041 90.9641L161.039 90.9707C160.676 92.3411 161.493 93.7464 162.863 94.1095Z" fill="#EA6563"/>
<path d="M206.344 105.117L211.541 106.316C212.922 106.635 214.301 105.774 214.619 104.393L214.621 104.386C214.94 103.005 214.079 101.626 212.697 101.308L207.5 100.108C206.119 99.7888 204.741 100.65 204.422 102.031L204.42 102.038C204.101 103.419 204.962 104.798 206.344 105.117Z" fill="#EA6563"/>
<path d="M214.825 16.6192L211.623 15.9844C211.147 15.8947 210.851 15.4462 210.899 14.9839L210.954 10.2918L212.776 10.9749L208.208 16.357C207.656 17.047 206.469 16.6744 206.393 15.8119L205.938 12.0237L207.615 12.7069L206.228 13.8316C205.952 14.0593 205.586 14.1145 205.268 14.0179L199.797 12.3135C199.39 12.1893 199.12 11.8306 199.072 11.4303L198.617 7.10395L200.418 7.68354L195.463 13.2313C195.084 13.6591 194.428 13.6936 194.001 13.3141C193.856 13.1899 193.759 13.0242 193.704 12.8586L191.875 7.17293L192.51 7.82845L185.382 5.64112C184.651 5.42032 184.244 4.6475 184.465 3.91609C184.699 3.14327 185.569 2.73616 186.314 3.04666L193.214 5.88261C193.524 5.99301 193.759 6.24833 193.849 6.53813L195.677 12.2238L193.918 11.8512L198.872 6.30351C199.252 5.8757 199.907 5.8412 200.335 6.22071C200.535 6.40011 200.645 6.64163 200.673 6.88314L201.128 11.2095L200.404 10.3263L205.876 12.0307L204.917 12.2169L206.303 11.0922C206.745 10.7334 207.401 10.8024 207.759 11.244C207.884 11.4027 207.96 11.5891 207.98 11.7754L208.436 15.5635L206.621 15.0184L211.189 9.63629C211.775 8.89107 213.059 9.38787 213.01 10.3194L212.955 15.0115L212.231 14.011L215.232 15.3082C215.984 15.6256 215.626 16.7917 214.825 16.6261V16.6192Z" fill="#231F20"/>
<path d="M201.584 44.5165C199.631 44.5165 197.202 44.1646 194.166 43.4332C190.04 42.4396 186.997 41.308 184.865 39.9763C181.277 37.7268 181.014 35.2152 181.421 33.5039C182.332 29.7157 186.603 27.2731 192.303 27.2731C193.904 27.2731 195.546 27.4732 197.175 27.8665C204.806 29.7019 209.85 35.0495 208.649 40.0452C207.939 43.0192 205.558 44.5234 201.584 44.5234V44.5165Z" fill="#DE423B"/>
<path d="M192.296 28.308C193.773 28.308 195.339 28.4874 196.926 28.8669C203.888 30.5368 208.684 35.429 207.635 39.7968C206.993 42.4671 204.785 43.4814 201.577 43.4814C199.541 43.4814 197.106 43.0743 194.401 42.4257C187.438 40.7559 181.373 38.1062 182.422 33.7453C183.229 30.3781 187.287 28.308 192.296 28.308ZM192.296 26.238C186.1 26.238 181.435 28.998 180.407 33.2623C179.917 35.2979 180.2 38.2718 184.306 40.8525C186.535 42.2532 189.674 43.4262 193.918 44.4406C197.037 45.1858 199.541 45.5515 201.577 45.5515C207.2 45.5515 209.07 42.6879 209.65 40.2798C210.982 34.7183 205.606 28.8186 197.409 26.8521C195.698 26.4381 193.98 26.2311 192.296 26.2311V26.238Z" fill="#231F20"/>
<path d="M153.001 112.69V116.664C153.001 119.845 150.427 122.419 147.246 122.419C145.19 122.419 143.285 121.322 142.257 119.535L136.972 110.351" fill="#DE423B"/>
<path d="M153.001 112.69V116.664C153.001 119.845 150.427 122.419 147.246 122.419C145.19 122.419 143.285 121.322 142.257 119.535L136.972 110.351" stroke="#231F20" stroke-width="2" stroke-linecap="round" stroke-linejoin="round"/>
</svg>
